<svg width="303" height="149" viewBox="0 0 303 149" fill="none" xmlns="http://www.w3.org/2000/svg">
<g filter="url(#filter0_d_145_538)">
<path fill-rule="evenodd" clip-rule="evenodd" d="M61.3663 135.655L91.5362 135.637L91.558 136.526L61.3849 136.528L61.3663 135.655ZM60.7793 111.716C61.2503 111.739 61.1279 111.544 61.123 112.861L61.1228 117.657C61.1228 120.174 61.2184 135.398 61.1022 136.504L60.7136 136.528C60.5963 135.764 60.6804 134.288 60.6809 133.453L60.6774 112.483C60.6765 112.391 60.6704 112.187 60.6777 112.106L60.7793 111.716ZM57.3761 111.706L60.4398 111.71L60.4459 136.528L57.3741 136.527L57.3761 111.706ZM82.02 112.042L91.5465 112.03L91.5633 135.398L82.0446 135.4L82.02 112.042ZM78.9653 135.377L71.1887 135.4C71.0836 134.703 71.086 131.225 71.3046 130.776C71.9922 129.363 78.0154 129.323 78.8152 130.741C79.0987 131.243 79.0453 134.585 78.9653 135.377ZM61.3647 129.561L69.2371 129.547L69.2743 135.39L61.3842 135.4L61.3647 129.561ZM157.242 126.268L158.213 126.227L158.225 126.934L157.253 126.933L157.242 126.268ZM154.937 106.013L156.991 106.017L157.012 126.94L154.964 126.947L154.937 106.013ZM157.238 125.319L158.231 125.271L158.216 125.988L157.257 125.984L157.238 125.319ZM158.466 106.958L159.689 106.968L159.722 125.991L158.461 125.999L158.466 106.958ZM158.036 117.072C158.279 117.193 158.248 117.201 158.235 117.937L158.233 123.11C158.233 123.435 158.389 125.044 158.039 125.044C157.677 125.043 157.853 121.532 157.853 121.136L157.852 118.032C157.85 117.903 157.833 117.563 157.844 117.46C157.898 116.934 157.783 117.211 158.036 117.072ZM157.288 117.103L157.568 117.087C157.678 117.843 157.664 124.145 157.571 125.048C157.059 125.002 157.24 124.802 157.24 123.392C157.24 122.318 157.166 117.483 157.288 117.103ZM61.3623 115.868L62.9951 115.843L62.9937 124.222L61.3684 124.258L61.3623 115.868ZM63.3536 122.3C63.2224 121.92 62.9919 118.034 63.5245 117.773C63.6197 117.726 66.8286 117.307 67.9142 118.38C68.8997 119.355 68.7781 120.957 67.8044 121.807C67.265 122.278 66.7038 122.389 65.8294 122.386C65.1382 122.383 63.9096 122.453 63.3536 122.3ZM157.241 116.184L158.231 116.118L158.238 116.833L157.235 116.819L157.241 116.184ZM158.036 107.922C158.286 108.066 158.248 108.096 158.235 108.817V115.026C158.254 116.137 158.265 115.781 158.036 115.896C157.796 115.764 157.839 115.735 157.851 115.026L157.85 108.817C157.833 107.73 157.829 108.054 158.036 107.922ZM157.475 115.896C157.103 115.784 157.227 115.61 157.236 115.123L157.24 109.853C157.24 109.45 157.087 107.986 157.404 107.927C157.771 107.858 157.616 111.272 157.616 111.827C157.616 112.42 157.779 115.644 157.475 115.896ZM81.7997 135.384L79.2432 135.399C78.8511 131.782 80.8221 129.482 75.0873 129.475C73.8072 129.474 71.7961 129.663 71.1694 130.548C70.733 131.164 70.9148 134.386 70.9213 135.405L69.4922 135.39L69.4922 129.335L61.3691 129.309L61.3617 124.517L63.1597 124.481C63.3395 123.941 63.2175 123.066 63.2438 122.476C63.9122 122.721 66.2674 122.737 67.0126 122.513C69.4846 121.767 69.3975 118.37 67.0932 117.61C66.4043 117.383 63.8404 117.359 63.2464 117.625C63.2098 117.007 63.3474 116.202 63.1644 115.633L61.3663 115.602L61.3627 111.74C62.3187 111.615 66.6308 111.71 68.1671 111.71C69.9574 111.71 69.0234 111.677 70.3124 111.533L70.3102 101.044C72.8293 100.984 75.7314 102.372 77.1739 104.087C78.9007 106.139 79.7555 107.846 79.7137 111.503C81.2845 111.921 89.2885 111.71 91.534 111.733C90.9822 112.003 83.2321 111.742 81.8043 111.815L81.7997 135.384ZM52.9371 110.545L53.5415 110.535L53.5447 111.581L52.9809 111.592L52.9371 110.545ZM40.0073 110.533L40.6256 110.544L40.6286 111.574L40.0615 111.598L40.0073 110.533ZM79.9693 110.739L80.3989 110.725L80.4252 111.333L79.9765 111.332L79.9693 110.739ZM69.6002 110.742L70.0388 110.717L70.0688 111.346L69.6052 111.327L69.6002 110.742ZM157.248 106.999L158.198 106.964L158.243 107.686L157.237 107.677L157.248 106.999ZM104.064 106.485L104.713 106.498L104.754 107.047L104.046 107.06L104.064 106.485ZM157.245 106.055L157.661 106.008L157.756 106.016L158.21 106.022L158.239 106.739L157.24 106.733L157.245 106.055ZM154.803 136.515L92.6882 136.528L92.6743 111.722L104.983 111.709L104.997 106.315L93.1945 106.268C93.0006 101.888 96.2347 97.7363 100.12 96.283C100.85 96.0099 101.535 95.8277 102.349 95.7036C103.055 95.5961 104.501 95.6795 104.974 95.5265L105.033 91.9274L154.801 91.9271C154.935 93.8954 154.814 100.597 154.816 103.083C154.817 104.965 154.703 106.654 154.703 108.536V125.461C154.703 125.887 154.671 126.456 154.703 126.865C154.845 128.626 154.815 129.055 154.816 130.914C154.816 132.688 154.916 134.78 154.803 136.515ZM12.7217 90.005L15.7866 89.9787L15.7886 101.03L12.7259 101.047L12.7217 90.005ZM16.6963 91.3595L18.3494 91.3634L18.3388 99.7642L16.7306 99.7732L16.6963 91.3595ZM37.7762 96.4782L38.3981 96.497L38.3867 96.9272L37.7941 96.9618L37.7762 96.4782ZM18.672 93.3599C19.5741 93.0051 22.2412 93.1279 22.9937 93.6853C24.7201 94.964 24.0638 97.8426 21.6003 97.9121C18.0978 98.0109 18.5761 98.2059 18.5751 95.8433C18.5747 95.0452 18.4831 94.0552 18.672 93.3599ZM104.044 94.7836L104.734 94.7991L104.727 95.3391L104.085 95.3469L104.044 94.7836ZM16.7012 89.3378C19.2635 88.75 23.2923 90.5144 24.779 87.4732C25.3093 86.3885 25.11 84.221 25.1098 82.8681C25.1096 81.2198 25.1519 79.515 25.1011 77.8737L28.031 77.8778C27.9972 78.8956 27.8552 82.1286 28.229 82.781C29.1004 84.302 35.2422 84.2893 36.0999 82.7859C36.4718 82.134 36.3318 78.8892 36.2957 77.8974L37.4167 77.8696C37.3899 79.7058 37.2193 85.4415 37.6193 86.7823C40.7727 86.6773 42.7277 87.3954 44.9376 89.2992C46.3973 90.5568 48.0852 93.2197 48.0198 96.2456L37.5968 96.2377C37.3231 97.749 37.419 99.4695 37.4113 101.049L16.7332 101.047L16.7002 100.057C16.9885 99.9976 17.283 100.014 17.5735 100.018C17.9234 100.023 18.2838 100.067 18.5552 99.9077L18.5788 98.0021C19.2587 98.222 21.7921 98.24 22.5093 97.9855C23.4026 97.6686 24.1976 96.7368 24.1962 95.5613C24.1948 94.3734 23.4202 93.4614 22.4989 93.1496C21.7919 92.9102 19.2387 92.8953 18.5755 93.1458L18.5708 91.2249L18.1398 91.1159C17.7666 91.0801 17.1609 91.1836 16.7088 91.0726L16.7012 89.3378ZM104.07 89.5705L104.709 89.575L104.759 90.1271L104.043 90.134L104.07 89.5705ZM12.7363 89.3553C13.1222 89.1897 15.787 89.2967 16.4261 89.2975C16.5606 89.925 16.5248 100.699 16.4008 101.054L16.0568 101.044L16.0172 89.7466L12.7094 89.7464L12.7363 89.3553ZM12.7218 86.0649L12.7219 78.2609L12.715 77.8722L13.6311 77.8837L13.619 78.2609L13.6215 81.0816L13.6212 89.0462L12.722 89.0693L12.7218 86.0649ZM13.8485 89.0592L13.8461 77.8793L24.8838 77.8736C24.869 79.7247 24.8816 81.5807 24.8816 83.4322C24.8816 85.3173 25.1673 86.9847 24.0303 88.1357C22.8224 89.3585 21.461 89.0705 19.4451 89.0719C17.6343 89.0731 15.6367 89.1501 13.8485 89.0592ZM37.7851 86.063L38.3887 86.0722L38.3872 86.4921L37.7969 86.5389L37.7851 86.063ZM36.0803 77.8885C36.0463 78.815 36.2587 82.0215 35.9207 82.6032C35.4205 83.4639 33.4316 83.685 32.1648 83.6843C30.8795 83.6836 28.9341 83.5122 28.4051 82.6028C28.0568 82.0039 28.2596 78.8136 28.2357 77.8733L36.0803 77.8885ZM104.042 77.8733L104.759 77.8757L104.718 78.4241L104.062 78.4342L104.042 77.8733ZM103.776 78.4196L92.9503 78.4294C93.016 84.6878 97.5694 89.3022 103.777 89.5778C104.028 91.2037 104.044 93.7131 103.775 95.3384C100.179 95.5943 97.8984 96.8013 96.1135 98.6499C94.403 100.422 92.955 102.923 92.9548 106.474L103.779 106.493C103.952 107.77 103.981 109.222 103.908 110.597C97.1525 110.491 89.8141 110.592 82.9426 110.592C81.844 110.592 80.9744 110.543 79.9726 110.481C79.6396 107.702 79.3505 106.409 77.6508 104.266L75.736 102.527C74.3746 101.574 71.6931 100.534 70.0664 100.842L70.052 110.496C69.2705 110.498 68.833 110.65 67.4355 110.58L67.425 91.2428L57.5106 91.2182L57.5074 92.3223L66.3214 92.3355L66.3202 110.592L57.3906 110.593L57.3659 108.982L53.6212 108.96L53.5425 110.283L52.6917 110.306L52.6949 111.523C52.7002 111.625 52.7212 111.7 52.7277 111.827C52.6487 112.19 52.8616 123.061 52.6795 123.686C51.1324 123.795 48.4895 123.032 47.3336 122.431C45.3947 121.423 43.6806 119.83 42.5458 117.94C40.9772 115.327 40.8967 113.303 40.8629 110.305L40.033 110.3L40.0043 108.99L38.5625 108.955C38.3466 107.892 38.5231 103.974 38.5228 102.613C38.5228 102.087 38.3102 96.6057 38.803 96.4706L48.233 96.4718C48.6822 94.2507 46.7491 90.3565 44.8669 88.9013C42.4426 87.027 41.8433 87.0041 38.6472 86.5139C38.5896 85.4546 38.5235 85.8959 38.523 84.2784L38.5132 77.1934C39.4272 77.1646 42.0467 77.3256 42.6795 77.0783C42.7717 75.0661 42.6985 74.0459 43.3931 72.244C44.2202 70.0982 44.9668 69.4073 46.2344 68.0576C46.3946 67.887 46.7647 67.599 47.0046 67.4215C48.7341 66.1421 51.0034 65.2836 53.323 65.2898L53.3221 77.1049C53.9504 77.25 58.3192 77.2508 58.9694 77.1075L58.9878 65.2857C60.6798 65.305 62.209 65.7407 63.4765 66.3375C64.11 66.6358 64.6973 67.0004 65.2305 67.3923C65.4704 67.5686 65.8545 67.8441 66.0211 68.0084C67.2131 69.1833 68.1996 70.3911 68.885 72.1791C69.5879 74.013 69.5234 75.0132 69.6139 77.0883C70.2746 77.3037 84.7231 77.1858 86.6833 77.1848C92.4269 77.1818 98.1877 77.2311 103.929 77.1823L103.776 78.4196ZM69.8641 76.2061L70.3876 76.2284L70.3593 76.8993L69.8551 76.9023L69.8641 76.2061ZM53.5759 76.1946L54.1074 76.2365L54.0829 76.8957L53.5728 76.908L53.5759 76.1946ZM41.915 76.2116L42.448 76.2001L42.4144 76.9091L41.9086 76.9024L41.915 76.2116ZM58.7241 76.2124C58.7373 76.3207 58.7701 76.4599 58.7596 76.5735C58.7173 77.0321 58.7224 76.7615 58.6284 76.9061L58.3479 76.9075C58.1528 76.6541 58.2795 77.1587 58.1913 76.5742C58.1783 76.4881 58.2175 76.2898 58.2279 76.2001L58.7241 76.2124ZM12.825 59.8312L20.7569 59.8379C20.7026 61.1518 20.7463 62.552 20.7463 63.8754C20.7463 64.6315 20.8384 67.2287 20.6963 67.7744L12.8355 67.7582L12.825 59.8312ZM57.4609 31.5853C57.6595 30.9133 57.5162 24.6445 57.5167 23.3513C57.5173 21.9949 57.4476 16.052 57.5393 15.2212C60.7658 15.0724 64.3408 15.2116 67.606 15.2116C69.2949 15.2116 70.7721 15.325 72.4688 15.3251C74.1521 15.3252 75.8354 15.3251 77.5187 15.3251L92.6683 15.3253C94.3552 15.3255 95.8386 15.2116 97.5346 15.2116L97.5381 19.3102L103.922 19.3153L103.929 76.0665L78.3603 76.0674C76.9264 76.0665 75.4925 76.068 74.0586 76.0679L69.8974 75.9544C69.6108 75.0875 69.8613 73.5802 68.8359 71.4769C67.6226 68.9881 65.8375 67.0731 63.2644 65.9815C62.6394 65.7163 59.4374 64.696 58.839 65.1065C58.696 65.2502 58.7519 66.217 58.7519 66.414C58.7529 68.4654 58.8489 74.8719 58.7265 75.9299L57.5178 76.0673L57.4846 60.7978L55.882 60.7892L55.8723 31.6108L57.4609 31.5853ZM157.246 54.5579L158.237 54.5769L158.207 55.2932L157.253 55.3029L157.246 54.5579ZM154.937 30.2684L157.012 30.2784C157.013 38.5353 157.08 47.0423 156.987 55.297L154.938 55.3026L154.937 30.2684ZM158.462 31.2261L159.725 31.2297L159.677 54.3379L158.483 54.3395C158.383 47.6187 158.464 39.2986 158.469 32.4716L158.462 31.2261ZM157.248 53.606L158.238 53.6232L158.184 54.3364L157.268 54.3405L157.248 53.606ZM158.036 53.374C157.767 53.2374 157.859 53.4578 157.84 52.8858L157.844 43.7455C157.897 43.2446 157.784 43.4998 158.036 43.3742C158.313 43.4995 158.221 43.338 158.245 43.837C158.334 45.721 158.215 50.0776 158.233 52.3108C158.244 53.7228 158.315 53.2462 158.036 53.374ZM157.382 53.374C157.15 53.1903 157.241 53.3276 157.23 52.8836L157.288 43.3888L157.569 43.4017C157.695 43.7737 157.6 50.8643 157.616 52.4057C157.628 53.5652 157.69 53.2845 157.382 53.374ZM12.8231 40.7142L20.7468 40.7253L20.7544 48.6678L12.8329 48.634L12.8231 40.7142ZM157.24 42.4422L158.23 42.4336L158.241 43.14L157.254 43.1126L157.24 42.4422ZM157.853 33.4118C157.855 32.256 157.715 32.3373 158.036 32.188C158.336 32.3144 158.189 32.0013 158.233 32.4716C158.328 34.5143 158.213 38.6485 158.233 41.122C158.244 42.4755 158.285 42.0585 158.036 42.1889C157.847 42.0803 157.838 42.1225 157.846 41.5038L157.853 33.4118ZM157.382 42.1883C157.127 41.9698 157.238 41.3945 157.24 41.0279C157.244 39.5086 157.155 32.5795 157.289 32.1942L157.616 32.2361L157.616 39.9934C157.616 40.9329 157.791 42.0578 157.382 42.1883ZM12.7436 15.2212C14.2993 15.1528 17.7099 15.1283 19.2762 15.3179L33.7531 15.325C40.7265 15.3255 47.6876 15.0378 54.7816 15.2168L54.7542 76.0581C54.4483 76.0712 53.6283 76.0374 53.5519 75.8163L53.5513 65.1084C52.2988 64.8282 49.9754 65.572 48.9665 66.0075C46.4304 67.1021 44.5982 69.0632 43.4335 71.5387C42.4312 73.6688 42.75 74.5371 42.4089 75.963C41.8316 75.9559 41.3745 76.0687 40.6735 76.0672C40.05 76.0658 39.4264 76.0654 38.803 76.0696L27.581 76.0675C22.7 76.0651 17.5997 75.9242 12.7231 76.0744L12.727 68.0009L20.974 67.9832L20.9741 59.6014L12.7242 59.5896L12.7241 48.8995L20.9097 48.8813C21.0456 48.4475 21.049 40.9831 20.9149 40.4837L12.7217 40.4595L12.7436 15.2212ZM157.237 31.2492L158.245 31.2386L158.185 31.9638L157.251 31.9333L157.237 31.2492ZM157.236 30.3134L157.662 30.2695L157.756 30.2663L158.234 30.2869L158.238 31.0114L157.239 30.9398L157.236 30.3134ZM110.472 15.2157L114.366 15.2092C114.801 15.2319 114.845 15.3308 115.388 15.3288C117.072 15.3223 118.758 15.3254 120.443 15.3253C122.04 15.3251 134.867 15.4183 135.764 15.3205C136.164 15.2769 136.294 15.207 136.9 15.2108L150.737 15.2127L150.738 28.1829L154.8 28.1946C154.883 29.2482 154.696 30.0007 154.702 30.9659L154.7 54.8541C154.697 55.4247 154.819 55.5974 154.819 56.16C154.82 56.6629 154.816 57.1667 154.816 57.6698C154.814 63.4869 154.931 85.1069 154.811 90.8055L150.739 90.8165L150.696 90.8146L105.034 90.8165L104.974 89.3945C104.373 89.2493 103.12 89.3392 102.331 89.2217C101.563 89.1074 100.772 88.8876 100.11 88.6437C99.0302 88.2462 97.3136 87.2223 96.6407 86.4894C96.3265 86.1471 96.2738 86.1203 95.9394 85.787C94.4509 84.3032 93.0181 80.832 93.204 78.6533C94.7707 78.654 104.312 78.7594 105.015 78.6037L105.021 19.3115L110.444 19.3109L110.472 15.2157ZM114.961 13.0032L135.763 13.0265L135.771 15.0886L114.955 15.0525L114.961 13.0032ZM70.1736 13.0502C70.8934 12.8898 81.0258 13.0004 82.6621 13.003C84.3171 13.0056 94.3181 12.8867 95.0601 13.049L95.0641 15.0883L70.1685 15.0429L70.1736 13.0502ZM19.2783 13.0025L40.0816 13.0391L40.0876 15.0881L19.2717 15.0736L19.2783 13.0025ZM135.071 11.7898L135.767 11.7989L135.724 12.7747L135.072 12.7588L135.071 11.7898ZM134.122 11.7811L134.816 11.815L134.784 12.7707L134.124 12.7671L134.122 11.7811ZM133.844 12.7556C133.177 12.8327 126.269 12.8293 125.963 12.7266L125.978 12.3991L133.858 12.4189L133.844 12.7556ZM125.02 11.7835L125.728 11.7692L125.659 12.7789L125.026 12.773L125.02 11.7835ZM118.759 12.7778C118.16 12.7778 117.067 12.8891 116.856 12.6327C116.965 12.2511 117.258 12.3882 117.728 12.3955L122.968 12.3972C124.027 12.3972 124.65 12.2199 124.779 12.6327C124.579 12.8738 124.287 12.7845 123.905 12.7795L118.759 12.7778ZM114.963 11.795L115.683 11.7734L115.631 12.781L114.966 12.7588L114.963 11.795ZM94.3425 11.7644L95.062 11.8239L95.0342 12.7667L94.3478 12.7787L94.3425 11.7644ZM93.3955 11.7787L94.1123 11.7714L94.045 12.7781L93.4019 12.7774L93.3955 11.7787ZM93.0947 12.7778C91.804 12.7778 83.7592 12.906 83.2272 12.7267C83.1768 12.2106 83.6439 12.3909 84.157 12.3964C85.7282 12.4132 92.7237 12.3081 93.1422 12.4464L93.0947 12.7778ZM82.2715 11.7748L82.9717 11.775L82.9125 12.7778L82.2771 12.7787L82.2715 11.7748ZM81.9997 12.7267C81.4858 12.9021 73.4098 12.7778 72.1132 12.7796L72.1069 12.3979L82.0108 12.4445L81.9997 12.7267ZM71.1416 11.7758L71.8565 11.7762L71.7896 12.7778L71.1461 12.7792L71.1416 11.7758ZM70.175 11.7984L70.9044 11.7728L70.8433 12.7819L70.1783 12.754L70.175 11.7984ZM39.3922 11.7812L40.0847 11.8113L40.0516 12.771L39.39 12.7656L39.3922 11.7812ZM34.2207 12.7778C33.4991 12.7779 30.7673 12.8838 30.2965 12.7267C30.2492 12.2409 30.5401 12.3837 31.0363 12.3937C31.3807 12.4007 31.7254 12.3972 32.0698 12.3972H36.3716C37.4161 12.3972 38.0531 12.2211 38.192 12.6327C37.9829 12.8724 37.694 12.7846 37.3087 12.7795L34.2207 12.7778ZM29.3361 11.7805L30.046 11.7673L29.9812 12.7784L29.341 12.777L29.3361 11.7805ZM20.2298 11.7926L20.9547 11.7823L20.8998 12.7795L20.2324 12.76L20.2298 11.7926ZM19.2826 11.7826L20.0041 11.7822L19.961 12.7781L19.2847 12.7686L19.2826 11.7826ZM116.576 12.7778C115.709 12.7783 115.878 12.8062 115.91 11.8031L116.64 11.7743L116.576 12.7778ZM38.4332 11.7727L39.1274 11.8308C39.1332 11.9794 39.1517 12.2143 39.1457 12.3549C39.1262 12.8169 39.1948 12.5987 38.99 12.7805L38.4177 12.7671L38.4332 11.7727ZM22.9987 12.3972C24.0592 12.3972 28.6944 12.3178 29.0835 12.4464L29.0365 12.7782L22.9052 12.7779C22.2992 12.7778 21.1101 12.9231 21.1789 12.562C21.239 12.2472 22.6041 12.3972 22.9987 12.3972ZM126.799 12.1608C125.793 12.1769 126.046 12.1586 125.95 11.9745C126.109 11.7968 125.682 11.8406 126.325 11.7666L129.981 11.7759C130.386 11.7758 133.873 11.5941 133.873 11.9712C133.872 12.3118 132.27 12.1583 131.945 12.1582L126.799 12.1608ZM117.729 12.1604C117.018 12.1719 116.991 12.2165 116.856 11.9745C117.089 11.73 116.604 11.8348 117.253 11.7647L122.874 11.7761C123.217 11.776 123.561 11.7803 123.904 11.774C123.981 11.7725 124.426 11.7641 124.468 11.7724C124.767 11.8319 124.651 11.7205 124.779 11.9745C124.623 12.2549 124.966 12.1122 124.38 12.1693L117.729 12.1604ZM83.5883 12.1679C83.0569 12.1132 83.3435 12.2334 83.1985 11.9745C83.362 11.8017 82.9639 11.7964 83.68 11.7639L92.1076 11.7753C93.4477 11.7643 93.0313 11.7089 93.1495 11.9745C93.0201 12.2414 93.2106 12.1508 92.6794 12.1707L88.1795 12.158C87.3067 12.158 86.4339 12.1584 85.5611 12.1583L83.5883 12.1679ZM73.123 12.1584C71.8105 12.1677 72.2016 12.2192 72.0782 11.9745C72.2466 11.7797 71.8181 11.7936 72.5511 11.7629C74.6195 11.6762 78.6165 11.7976 80.9792 11.7755C82.2766 11.7634 81.9066 11.7322 82.0257 11.9745C81.8813 12.2416 82.034 12.1493 81.5506 12.1696C79.4952 12.2558 75.4615 12.142 73.123 12.1584ZM31.1327 12.1607C30.1065 12.1773 30.3734 12.1611 30.2691 11.9745C30.4729 11.7593 29.9785 11.8416 30.6575 11.7657L37.3081 11.7738C38.0825 11.76 38.061 11.7288 38.1918 11.9745C38.0306 12.2498 38.3767 12.1116 37.7841 12.1691L31.1327 12.1607ZM21.4976 12.162C21.2058 12.1092 21.3105 12.2052 21.1763 11.9745C21.4231 11.726 20.9122 11.8347 21.5857 11.7644L28.2377 11.7739C29.0795 11.7587 28.9891 11.7419 29.0914 11.9745C28.9516 12.2659 29.2811 12.1142 28.7127 12.1697L22.0622 12.1604C21.9758 12.1619 21.5513 12.1718 21.4976 12.162ZM115.909 10.3305C116.561 10.1741 133.64 10.2831 134.811 10.2791L134.822 11.5462C131.653 11.5257 128.475 11.5466 125.305 11.5424C123.786 11.5404 116.804 11.7364 115.902 11.4822L115.909 10.3305ZM71.1305 10.2799L94.1048 10.2791L94.1126 11.5438L71.1225 11.544L71.1305 10.2799ZM20.2298 10.2793L39.1337 10.3268L39.1414 11.4851C38.4971 11.6563 35.3139 11.5443 34.4077 11.5441L20.2183 11.5447L20.2298 10.2793ZM10 10.094V103.835H35.717V111.733H38.99C39.6672 111.733 39.9266 111.827 40.5798 111.827C40.5798 113.721 41.0525 115.329 41.6343 116.69C42.2774 118.195 43.4126 119.885 44.7082 120.934C45.6333 121.683 46.0973 122.157 47.3737 122.767C49.1099 123.597 50.5696 123.956 52.7369 123.956C52.9524 123.956 53.0174 123.891 53.0174 123.674V111.827L54.8878 111.733V139H159.906C159.906 130.284 160 121.862 160 113.144C160 108.75 159.906 104.658 159.906 100.262L160 34.5401C160 30.9247 159.906 27.4275 159.906 23.7274C159.906 20.0605 159.906 16.3936 159.906 12.7267C159.906 9.56178 160.663 10.094 157.101 10.094H140.642C136.951 10.094 133.568 10 129.888 10C126.241 10 122.593 10 118.946 10C117.054 10 115.444 10.094 113.616 10.094H97.1571C95.266 10.094 93.7027 10 91.8267 10H75.4613C71.7743 10 68.3403 10.094 64.6134 10.094L31.8828 10C24.4826 10 17.3792 10.094 10 10.094Z" fill="white"/>
<rect x="120.233" y="64.3608" width="18.0368" height="18.0368" fill="white"/>
<path d="M127.673 67.4781V66.5121C128.401 66.5121 128.905 66.3861 129.297 66.0921H130.13V70.9921H129.15V67.2331C128.73 67.4011 128.275 67.4781 127.673 67.4781ZM122.361 75.4781V74.5121C123.089 74.5121 123.593 74.3861 123.985 74.0921H124.818V78.9921H123.838V75.2331C123.418 75.4011 122.963 75.4781 122.361 75.4781ZM125.485 76.5491C125.485 75.0791 126.493 73.9871 127.858 73.9871C129.223 73.9871 130.224 75.0161 130.224 76.5491C130.224 78.0611 129.223 79.0971 127.858 79.0971C126.5 79.0971 125.485 78.0051 125.485 76.5491ZM126.465 76.5491C126.465 77.4941 127.046 78.1591 127.865 78.1591C128.684 78.1591 129.244 77.4941 129.244 76.5491C129.244 75.5831 128.684 74.9251 127.865 74.9251C127.039 74.9251 126.465 75.5831 126.465 76.5491ZM131.891 76.9901V78.9921H130.911V74.0921H131.891V76.0941H132.451L134.362 74.0921H135.692L133.368 76.5421L135.874 78.9921H134.509L132.43 76.9901H131.891Z" fill="#252525"/>
<line x1="136.571" y1="72.6541" x2="121.88" y2="72.6541" stroke="#252525" stroke-width="0.501021"/>
<path d="M170.5 73.999C170.223 73.999 169.999 74.2233 169.999 74.5C169.999 74.7767 170.223 75.001 170.5 75.001L170.5 73.999ZM200.854 74.8543C201.05 74.6586 201.05 74.3414 200.854 74.1457L197.666 70.9572C197.47 70.7616 197.153 70.7616 196.957 70.9572C196.762 71.1529 196.762 71.4701 196.957 71.6658L199.791 74.5L196.957 77.3342C196.762 77.5299 196.762 77.8471 196.957 78.0428C197.153 78.2384 197.47 78.2384 197.666 78.0428L200.854 74.8543ZM170.5 75.001L200.5 75.001L200.5 73.999L170.5 73.999L170.5 75.001Z" fill="white"/>
<g filter="url(#filter1_d_145_538)">
<rect x="211" y="17.5" width="82" height="114" rx="3.56435" fill="white"/>
<rect x="211.074" y="17.5743" width="81.8515" height="113.851" rx="3.49009" stroke="url(#paint0_linear_145_538)" stroke-opacity="0.14" stroke-width="0.148515"/>
<path d="M213.353 21.9108C213.353 20.9265 214.151 20.1286 215.135 20.1286H288.227C289.211 20.1286 290.009 20.9265 290.009 21.9108V105.023C290.009 106.007 289.211 106.805 288.227 106.805H215.135C214.151 106.805 213.353 106.007 213.353 105.023V59.8819C213.353 59.2805 213.656 58.7197 214.159 58.3905L215.596 57.4506C216.1 57.1214 216.403 56.5605 216.403 55.9591V37.3331C216.403 36.7264 216.094 36.1614 215.584 35.8335L214.172 34.9269C213.661 34.599 213.353 34.034 213.353 33.4273V21.9108Z" fill="#E4EDF3"/>
<path d="M213.353 21.9108C213.353 20.9265 214.151 20.1286 215.135 20.1286H288.227C289.211 20.1286 290.009 20.9265 290.009 21.9108V105.023C290.009 106.007 289.211 106.805 288.227 106.805H215.135C214.151 106.805 213.353 106.007 213.353 105.023V59.8819C213.353 59.2805 213.656 58.7197 214.159 58.3905L215.596 57.4506C216.1 57.1214 216.403 56.5605 216.403 55.9591V37.3331C216.403 36.7264 216.094 36.1614 215.584 35.8335L214.172 34.9269C213.661 34.599 213.353 34.034 213.353 33.4273V21.9108Z" fill="url(#paint1_linear_145_538)" fill-opacity="0.5"/>
<path d="M215.082 114.079V117.815H213.962V112.215H214.858L218.338 115.927V112.215H219.458V117.815H218.554L215.082 114.079ZM220.47 117.815V112.215H225.094V113.247H221.59V114.695H224.966V115.743H221.59V117.815H220.47ZM227.751 117.815V113.247H225.767V112.215H230.839V113.247H228.871V117.815H227.751ZM234.389 115.023C234.389 116.103 235.205 116.863 236.341 116.863C237.149 116.863 237.781 116.487 238.093 115.879H239.277C238.933 117.135 237.781 117.935 236.341 117.935C234.589 117.935 233.269 116.687 233.269 115.023C233.269 113.335 234.581 112.095 236.341 112.095C237.781 112.095 238.925 112.895 239.277 114.151H238.093C237.789 113.535 237.157 113.167 236.341 113.167C235.197 113.167 234.389 113.919 234.389 115.023ZM239.432 117.815L242.24 112.215H243.488L246.312 117.815H245.064L244.4 116.495H241.336L240.672 117.815H239.432ZM241.848 115.471H243.88L242.864 113.455L241.848 115.471ZM250.569 117.815L249.329 116.183H247.809V117.815H246.689V112.215H249.569C250.769 112.215 251.761 113.007 251.761 114.199C251.761 114.983 251.249 115.639 250.553 115.967L251.961 117.815H250.569ZM250.641 114.199C250.641 113.647 250.193 113.247 249.569 113.247H247.809V115.135H249.569C250.185 115.135 250.641 114.727 250.641 114.199ZM252.455 117.815V112.215H255.103C256.663 112.215 257.999 113.351 257.999 115.007C257.999 116.607 256.583 117.815 255.103 117.815H252.455ZM256.879 115.007C256.879 113.991 256.127 113.287 255.103 113.287H253.575V116.743H255.103C256.119 116.743 256.879 116.023 256.879 115.007Z" fill="#252525"/>
<path opacity="0.9" d="M214.399 127.84V125.242H213.393V124.96H215.699V125.242H214.693V127.84H214.399ZM216.826 127.84V126.634L215.86 124.96H216.2L216.974 126.298L217.744 124.96H218.084L217.122 126.634V127.84H216.826ZM218.363 127.84V124.96H219.475C219.503 124.96 219.534 124.961 219.569 124.964C219.605 124.965 219.641 124.969 219.677 124.976C219.828 124.998 219.955 125.051 220.059 125.134C220.164 125.215 220.244 125.318 220.297 125.442C220.352 125.566 220.379 125.703 220.379 125.854C220.379 126.003 220.352 126.14 220.297 126.264C220.242 126.388 220.162 126.491 220.057 126.574C219.953 126.655 219.826 126.707 219.677 126.73C219.641 126.735 219.605 126.739 219.569 126.742C219.534 126.744 219.503 126.746 219.475 126.746H218.657V127.84H218.363ZM218.657 126.466H219.467C219.491 126.466 219.519 126.464 219.551 126.462C219.583 126.459 219.614 126.454 219.645 126.448C219.744 126.426 219.824 126.386 219.887 126.326C219.951 126.266 219.998 126.194 220.029 126.112C220.061 126.029 220.077 125.943 220.077 125.854C220.077 125.764 220.061 125.678 220.029 125.596C219.998 125.512 219.951 125.44 219.887 125.38C219.824 125.32 219.744 125.279 219.645 125.258C219.614 125.251 219.583 125.247 219.551 125.246C219.519 125.243 219.491 125.242 219.467 125.242H218.657V126.466ZM220.777 127.84V124.96H222.577V125.242H221.071V126.238H222.337V126.52H221.071V127.558H222.577V127.84H220.777Z" fill="#252525" fill-opacity="0.8"/>
<path opacity="0.9" d="M242.501 127.84V124.96H242.795V127.558H244.163V127.84H242.501ZM245.592 127.9C245.305 127.9 245.063 127.836 244.866 127.71C244.668 127.582 244.519 127.405 244.418 127.18C244.316 126.954 244.266 126.694 244.266 126.4C244.266 126.105 244.316 125.845 244.418 125.62C244.519 125.394 244.668 125.218 244.866 125.092C245.063 124.964 245.305 124.9 245.592 124.9C245.88 124.9 246.122 124.964 246.318 125.092C246.515 125.218 246.664 125.394 246.766 125.62C246.868 125.845 246.92 126.105 246.92 126.4C246.92 126.694 246.868 126.954 246.766 127.18C246.664 127.405 246.515 127.582 246.318 127.71C246.122 127.836 245.88 127.9 245.592 127.9ZM245.592 127.618C245.817 127.618 246.005 127.566 246.156 127.464C246.306 127.361 246.419 127.218 246.494 127.036C246.57 126.852 246.608 126.64 246.608 126.4C246.608 126.16 246.57 125.948 246.494 125.766C246.419 125.583 246.306 125.44 246.156 125.338C246.005 125.235 245.817 125.183 245.592 125.182C245.366 125.182 245.179 125.233 245.03 125.336C244.88 125.438 244.768 125.582 244.692 125.766C244.617 125.948 244.579 126.16 244.578 126.4C244.576 126.64 244.613 126.851 244.688 127.034C244.764 127.215 244.877 127.358 245.028 127.462C245.178 127.564 245.366 127.616 245.592 127.618ZM248.486 127.9C248.199 127.9 247.957 127.836 247.76 127.71C247.563 127.582 247.413 127.405 247.312 127.18C247.211 126.954 247.16 126.694 247.16 126.4C247.16 126.105 247.211 125.845 247.312 125.62C247.413 125.394 247.563 125.218 247.76 125.092C247.957 124.964 248.199 124.9 248.486 124.9C248.821 124.9 249.094 124.986 249.306 125.158C249.518 125.328 249.663 125.558 249.742 125.846L249.442 125.924C249.381 125.696 249.271 125.515 249.112 125.382C248.953 125.248 248.745 125.182 248.486 125.182C248.261 125.182 248.073 125.233 247.924 125.336C247.775 125.438 247.662 125.582 247.586 125.766C247.511 125.948 247.473 126.16 247.47 126.4C247.469 126.64 247.505 126.851 247.58 127.034C247.656 127.216 247.769 127.36 247.92 127.464C248.072 127.566 248.261 127.618 248.486 127.618C248.745 127.618 248.953 127.551 249.112 127.418C249.271 127.283 249.381 127.102 249.442 126.876L249.742 126.954C249.663 127.242 249.518 127.472 249.306 127.644C249.094 127.814 248.821 127.9 248.486 127.9ZM249.905 127.84L250.897 124.96H251.287L252.279 127.84H251.973L251.031 125.124H251.147L250.211 127.84H249.905ZM250.347 127.142V126.866H251.835V127.142H250.347ZM253.168 127.84V125.242H252.162V124.96H254.468V125.242H253.462V127.84H253.168ZM254.829 127.84V124.96H255.123V127.84H254.829ZM256.889 127.9C256.602 127.9 256.36 127.836 256.163 127.71C255.965 127.582 255.816 127.405 255.715 127.18C255.613 126.954 255.563 126.694 255.563 126.4C255.563 126.105 255.613 125.845 255.715 125.62C255.816 125.394 255.965 125.218 256.163 125.092C256.36 124.964 256.602 124.9 256.889 124.9C257.177 124.9 257.419 124.964 257.615 125.092C257.812 125.218 257.961 125.394 258.063 125.62C258.165 125.845 258.217 126.105 258.217 126.4C258.217 126.694 258.165 126.954 258.063 127.18C257.961 127.405 257.812 127.582 257.615 127.71C257.419 127.836 257.177 127.9 256.889 127.9ZM256.889 127.618C257.114 127.618 257.302 127.566 257.453 127.464C257.603 127.361 257.716 127.218 257.791 127.036C257.867 126.852 257.905 126.64 257.905 126.4C257.905 126.16 257.867 125.948 257.791 125.766C257.716 125.583 257.603 125.44 257.453 125.338C257.302 125.235 257.114 125.183 256.889 125.182C256.663 125.182 256.476 125.233 256.327 125.336C256.177 125.438 256.065 125.582 255.989 125.766C255.914 125.948 255.876 126.16 255.875 126.4C255.873 126.64 255.91 126.851 255.985 127.034C256.061 127.215 256.174 127.358 256.325 127.462C256.475 127.564 256.663 127.616 256.889 127.618ZM258.617 127.84V124.96H258.913L260.499 127.32V124.96H260.795V127.84H260.499L258.913 125.478V127.84H258.617Z" fill="#252525" fill-opacity="0.8"/>
<path opacity="0.9" d="M280.289 127.84V124.96H281.163C281.194 124.96 281.246 124.96 281.319 124.962C281.394 124.963 281.465 124.968 281.533 124.978C281.752 125.008 281.934 125.09 282.081 125.222C282.228 125.354 282.338 125.522 282.411 125.726C282.484 125.93 282.521 126.154 282.521 126.4C282.521 126.645 282.484 126.87 282.411 127.074C282.338 127.278 282.228 127.446 282.081 127.578C281.934 127.71 281.752 127.791 281.533 127.822C281.466 127.83 281.395 127.835 281.319 127.838C281.243 127.839 281.191 127.84 281.163 127.84H280.289ZM280.593 127.558H281.163C281.218 127.558 281.276 127.556 281.339 127.554C281.403 127.55 281.458 127.543 281.503 127.534C281.671 127.504 281.806 127.436 281.909 127.33C282.013 127.223 282.089 127.09 282.137 126.93C282.185 126.768 282.209 126.592 282.209 126.4C282.209 126.206 282.185 126.029 282.137 125.868C282.089 125.706 282.013 125.573 281.909 125.468C281.805 125.362 281.67 125.295 281.503 125.266C281.458 125.256 281.402 125.25 281.337 125.248C281.273 125.244 281.215 125.242 281.163 125.242H280.593V127.558ZM282.698 127.84L283.69 124.96H284.08L285.072 127.84H284.766L283.824 125.124H283.94L283.004 127.84H282.698ZM283.14 127.142V126.866H284.628V127.142H283.14ZM285.961 127.84V125.242H284.955V124.96H287.261V125.242H286.255V127.84H285.961ZM287.582 127.84V124.96H289.382V125.242H287.876V126.238H289.142V126.52H287.876V127.558H289.382V127.84H287.582Z" fill="#252525" fill-opacity="0.8"/>
</g>
</g>
<defs>
<filter id="filter0_d_145_538" x="-4" y="0" width="311" height="157" filterUnits="userSpaceOnUse" color-interpolation-filters="sRGB">
<feFlood flood-opacity="0" result="BackgroundImageFix"/>
<feColorMatrix in="SourceAlpha" type="matrix" values="0 0 0 0 0 0 0 0 0 0 0 0 0 0 0 0 0 0 127 0" result="hardAlpha"/>
<feOffset dy="4"/>
<feGaussianBlur stdDeviation="2"/>
<feComposite in2="hardAlpha" operator="out"/>
<feColorMatrix type="matrix" values="0 0 0 0 0 0 0 0 0 0 0 0 0 0 0 0 0 0 0.25 0"/>
<feBlend mode="normal" in2="BackgroundImageFix" result="effect1_dropShadow_145_538"/>
<feBlend mode="normal" in="SourceGraphic" in2="effect1_dropShadow_145_538" result="shape"/>
</filter>
<filter id="filter1_d_145_538" x="207.584" y="14.6782" width="88.8317" height="120.832" filterUnits="userSpaceOnUse" color-interpolation-filters="sRGB">
<feFlood flood-opacity="0" result="BackgroundImageFix"/>
<feColorMatrix in="SourceAlpha" type="matrix" values="0 0 0 0 0 0 0 0 0 0 0 0 0 0 0 0 0 0 127 0" result="hardAlpha"/>
<feMorphology radius="0.148515" operator="erode" in="SourceAlpha" result="effect1_dropShadow_145_538"/>
<feOffset dy="0.594058"/>
<feGaussianBlur stdDeviation="1.78217"/>
<feComposite in2="hardAlpha" operator="out"/>
<feColorMatrix type="matrix" values="0 0 0 0 0 0 0 0 0 0 0 0 0 0 0 0 0 0 0.2 0"/>
<feBlend mode="normal" in2="BackgroundImageFix" result="effect1_dropShadow_145_538"/>
<feBlend mode="normal" in="SourceGraphic" in2="effect1_dropShadow_145_538" result="shape"/>
</filter>
<linearGradient id="paint0_linear_145_538" x1="211" y1="17.5" x2="292.246" y2="131.298" gradientUnits="userSpaceOnUse">
<stop stop-color="white"/>
<stop offset="1" stop-color="white" stop-opacity="0.31"/>
</linearGradient>
<linearGradient id="paint1_linear_145_538" x1="213.352" y1="20.1286" x2="270.008" y2="118.37" gradientUnits="userSpaceOnUse">
<stop stop-color="white" stop-opacity="0"/>
<stop offset="0.473958" stop-color="white"/>
<stop offset="0.592255" stop-color="#A3B2D1"/>
<stop offset="1" stop-color="#535C7F"/>
</linearGradient>
</defs>
</svg>
