<svg width="295" height="150" viewBox="0 0 295 150" fill="none" xmlns="http://www.w3.org/2000/svg">
<rect width="295" height="150" rx="10" fill="white"/>
<path fill-rule="evenodd" clip-rule="evenodd" d="M103.023 67.1203C103.223 67.9553 103.35 68.8992 103.522 69.7342L104.739 76.2598C104.82 76.6773 104.956 77.2128 104.956 77.6393H92.0685C92.3226 77.2672 92.9943 76.6773 93.3482 76.3143L98.1494 71.6855C98.458 71.4314 98.576 71.3315 98.8573 71.0502C99.3202 70.5873 99.7286 70.1607 100.201 69.6979L103.023 67.1203ZM199.891 66.612C199.891 67.0749 202.106 77.3126 202.169 77.5577H188.61C189.091 76.8316 190.697 75.5156 191.414 74.7986C192.358 73.8547 193.247 72.9652 194.191 72.0213L199.12 67.2655C199.374 67.0295 199.528 66.7119 199.891 66.612ZM160.474 69.4801L158.949 72.8382C158.795 73.2193 158.632 73.6459 158.459 74.0362L154.584 83.3844C154.275 84.165 153.958 84.9001 153.622 85.7079C153.449 86.1254 153.304 86.4793 153.123 86.8968C152.977 87.2236 152.723 87.7772 152.642 88.1039H177.573C177.936 88.0676 177.845 88.0222 178.118 87.8044C179.27 86.8696 181.267 84.5462 182.683 83.3572C183.173 82.9488 184.589 81.2697 184.988 81.1971L202.922 81.188C203.186 82.3135 203.44 83.5206 203.676 84.646L204.438 88.0948H210.837L207.724 75.0436C207.188 72.8563 206.734 70.7144 206.172 68.5089C205.89 67.3835 205.681 66.367 205.4 65.2416C205.11 64.098 204.865 63.027 204.61 61.9016H192.73C191.623 61.8925 192.031 61.8744 190.77 62.9726L187.693 65.8769C187.502 66.0675 187.375 66.1945 187.185 66.3851L182.556 70.7688C182.338 70.9776 182.22 71.0139 182.002 71.2317C181.666 71.5584 181.385 71.8943 181.031 72.2028C180.813 72.4025 180.704 72.4388 180.487 72.6657C179.043 74.1179 177.274 75.6336 175.858 77.0494C175.676 77.2309 175.54 77.3852 175.35 77.5577L167.599 84.8003C167.254 85.1361 166.945 85.5082 166.582 85.8077L165.511 86.7607C165.538 86.4067 170.076 75.5609 170.621 74.3538C170.857 73.8184 171.029 73.3373 171.265 72.8018C172.046 70.9957 175.259 62.9181 175.794 61.9107H165.094C164.032 61.9016 164.05 62.1557 163.024 62.9635L160.438 65.0056C156.481 68.2185 152.378 71.2317 148.476 74.5263C147.105 75.688 145.054 77.2128 143.811 78.3654C143.538 78.6195 143.674 78.5923 143.193 78.5923C143.711 77.6212 145.172 73.5642 145.717 72.1937C145.898 71.749 146.552 70.3786 146.443 69.9611C146.334 69.5345 142.685 62.4008 142.431 61.9198H130.977C130.732 62.3826 130.551 62.9363 130.324 63.4627L125.777 74.4174C125.35 75.4793 124.896 76.4685 124.488 77.5123C124.07 78.5651 123.626 79.5907 123.172 80.6616C122.818 81.4966 120.785 86.1889 120.612 86.9422C120.603 86.9241 120.612 86.9241 120.612 86.9422L116.084 68.2276C115.82 67.1475 115.612 66.1764 115.339 65.0964C115.131 64.2432 114.895 62.6459 114.55 61.9288C113.424 61.9288 102.733 61.829 102.17 61.9379C101.943 61.9833 101.743 62.192 101.562 62.3373C101.344 62.5097 101.208 62.6731 101.008 62.8727C100.818 63.0633 100.7 63.1995 100.509 63.381C100.282 63.5988 100.146 63.6533 99.9192 63.8802C99.5743 64.216 99.2658 64.579 98.9118 64.8876L97.8136 65.895C96.6246 67.0931 95.3449 68.2003 94.1106 69.3439L88.7649 74.4446C88.547 74.6624 88.4291 74.7078 88.2112 74.9075C87.83 75.2614 87.5396 75.6154 87.1584 75.9603L79.6526 83.0305C79.4166 83.2301 79.3349 83.2664 79.108 83.4933C78.9084 83.693 78.7631 83.8382 78.5635 84.0379L74.8151 87.5321C74.6154 87.7318 74.443 87.877 74.2887 88.1039C74.9875 88.1039 80.9323 88.231 81.2953 88.0313C81.4769 87.9405 82.2665 87.042 82.5206 86.8151C82.7747 86.5882 82.9018 86.5247 83.1559 86.2706L87.4307 82.1229C88.9555 80.9611 87.4579 81.2788 91.3878 81.2788H105.791C105.791 81.7326 106.027 82.5676 106.109 82.9851C106.318 84.0379 107.08 87.3688 107.144 88.1039H125.758C125.849 87.7227 126.058 87.3506 126.212 86.9604C126.394 86.5156 126.53 86.207 126.702 85.7714L128.626 81.1245C128.935 80.3621 129.289 79.5181 129.625 78.7557C129.97 77.9842 130.233 77.2218 130.578 76.4322C131.54 74.2812 132.447 72.1575 133.174 69.9248L133.419 69.3257C133.419 70.8687 134.98 73.9636 135.633 75.4429C136.132 76.5593 139.863 84.9092 139.899 85.3267C141.124 85.3267 140.924 85.3721 141.641 84.7912C142.086 84.4282 142.458 84.1377 142.903 83.7838L158.105 71.6946C158.849 71.0956 159.793 69.9429 160.474 69.4801Z" fill="#252525"/>
<path fill-rule="evenodd" clip-rule="evenodd" d="M50.3735 66.0221C53.3958 66.0221 63.0163 65.8497 65.5122 66.2127C66.5287 66.3579 67.0914 66.5485 67.8992 66.9479C68.6253 67.3109 69.0972 67.6467 69.551 68.3274C70.7672 70.1607 70.2045 72.6022 69.4512 74.4809C69.0246 75.5428 68.6343 76.5139 68.1533 77.476C66.4289 80.9248 65.0675 82.1864 61.0468 83.0849C59.7943 83.3663 58.5146 83.3844 57.1986 83.5296C56.4544 83.6113 50.0377 83.5387 48.7035 83.5387C48.7307 83.2664 48.9395 82.858 49.0393 82.6129L53.0237 73.1195C53.0509 72.8563 53.0146 72.938 52.6697 72.9198C51.0179 72.8381 49.1119 72.9289 47.4329 72.9289C47.3603 73.2284 47.1969 73.5461 47.0698 73.8274C46.9246 74.1723 46.8157 74.4718 46.6705 74.7804L44.2835 80.4801C43.9931 81.1426 43.7843 81.7326 43.4939 82.3861L41.1069 88.0858C46.1622 88.0858 51.2176 88.0858 56.2729 88.0858C57.8249 88.0858 60.2572 88.1674 61.8183 87.9859C64.5592 87.6773 67.1459 87.6229 69.8959 86.5429C72.419 85.5536 74.3885 84.5734 76.476 82.7582C76.7029 82.5585 76.8027 82.5222 77.0205 82.2953C77.3563 81.9504 77.6558 81.778 77.9917 81.4149C78.1823 81.2062 78.2095 81.1154 78.4092 80.9067C79.8795 79.3728 80.9504 77.8299 81.9397 75.8514C84.1724 71.3951 84.6443 66.4305 79.8613 63.6714C78.3819 62.8183 75.9768 62.2465 74.1253 62.074L71.7746 61.8925C65.1945 61.8108 58.56 61.8925 51.9799 61.8925C51.9255 62.5097 50.5913 65.0782 50.3735 66.0221Z" fill="#252525"/>
<path fill-rule="evenodd" clip-rule="evenodd" d="M211.762 79.4092C211.762 81.4513 211.908 82.9125 213.106 84.4645C213.986 85.599 214.839 86.198 216.228 86.8242C218.379 87.7863 222.653 88.0858 225.83 88.0858H242.929C243.22 88.0858 243.256 87.6955 243.483 87.1237C243.646 86.7244 243.746 86.4249 243.918 86.0437L244.781 83.8745C240.86 83.8745 236.73 83.9834 232.819 83.7928C230.023 83.6567 224.986 83.2755 224.986 79.5816C224.986 77.7664 225.122 76.9042 225.803 75.1798C226.847 72.5205 228.172 70.6599 230.314 68.9083C230.758 68.5452 231.094 68.3183 231.602 68.0098C235.251 65.8043 238.337 65.9404 242.421 65.9404C243.882 65.9404 245.343 65.9404 246.805 65.9404L245.244 69.7069C245.153 69.9066 245.035 70.07 245.371 70.07H250.508C250.88 70.07 251.334 68.6814 251.542 68.155L253.893 61.9379C253.893 61.947 253.893 61.9289 253.893 61.9379L235.269 61.9016C233.971 61.9016 232.927 62.0105 231.729 62.0741C230.74 62.1285 229.424 62.3826 228.517 62.5732C227.464 62.782 226.493 63.0452 225.521 63.3719C221.828 64.6063 218.778 66.6211 216.409 69.1715C216.237 69.3621 216.173 69.4801 215.992 69.6797C214.957 70.8414 214.14 72.2301 213.441 73.6187C212.743 75.0073 211.762 77.3671 211.762 79.4092Z" fill="#252525"/>
</svg>
