<svg width="295" height="150" viewBox="0 0 295 150" fill="none" xmlns="http://www.w3.org/2000/svg">
<rect width="295" height="150" rx="10" fill="white"/>
<path fill-rule="evenodd" clip-rule="evenodd" d="M125.028 78.7926V95.898H128.3V81.8906C129.108 82.4319 139.285 92.7834 141.084 94.5822C142.583 96.0812 142.216 96.0729 143.041 95.898V73.696H139.585V88.0698C137.553 86.704 124.561 72.5551 123.387 72.2386C123.387 73.4378 123.287 75.1034 123.387 76.2443C123.512 77.7267 125.028 77.9598 125.028 78.7926Z" fill="#252525"/>
<path fill-rule="evenodd" clip-rule="evenodd" d="M208.547 93.1665C206.032 93.1665 203.967 92.5835 202.593 90.9346C198.429 85.9379 200.786 76.4275 207.273 76.4275C210.179 76.4275 211.895 76.4775 213.852 79.1258C216.259 82.3819 216.117 87.5785 213.669 90.6515C212.653 91.9256 210.771 93.1665 208.547 93.1665ZM197.08 84.4306C197.08 88.0032 197.938 90.5765 199.845 92.7667L201.135 94.0242C201.693 94.4739 202.093 94.6738 202.718 94.9903C206.798 97.0389 213.469 96.4643 216.55 92.442C218.574 89.802 219.565 85.3966 218.691 81.7407C218.549 81.1494 218.241 80.2583 218.033 79.6671C215.992 73.9125 208.705 72.0804 203.417 74.204C199.395 75.8196 197.08 79.9336 197.08 84.4306Z" fill="#252525"/>
<path fill-rule="evenodd" clip-rule="evenodd" d="M241.659 88.0781C240.859 87.5452 230.999 77.5101 229.242 75.753C228.659 75.17 228.126 74.2956 227.285 74.0708C227.16 74.2956 227.102 74.2623 227.102 74.6204V95.9063H230.374V81.8989C231.29 82.5068 233.139 84.5721 234.055 85.4965C235.313 86.754 236.437 87.8783 237.695 89.1358C238.952 90.3933 240.076 91.5175 241.334 92.775L244.057 95.5232C244.632 96.1228 244.398 96.0645 245.106 95.9146V73.7127H241.65L241.659 88.0781Z" fill="#252525"/>
<path fill-rule="evenodd" clip-rule="evenodd" d="M151.043 84.797C151.043 90.868 155.141 96.0812 160.87 96.0812C163.21 96.0812 165.034 96.1978 167.183 95.1152C167.832 94.7904 169.973 93.5079 169.973 92.8084V84.9802H162.511C161.72 84.9802 161.961 85.7547 161.961 87.5285C161.961 88.4862 164.018 88.0781 166.691 88.0781V91.351C166.691 92.4086 162.528 93.9743 158.938 92.5585C152.201 89.9019 153.35 76.4359 161.237 76.4359C166.475 76.4359 166.383 78.243 167.791 78.6177C167.966 78.4928 169.648 76.6524 169.789 76.4359C167.849 75.1367 167.174 73.3462 161.961 73.3462C160.162 73.3462 158.68 73.771 157.389 74.229C155.957 74.737 155.082 75.5947 154.091 76.5774C152.126 78.5261 151.043 81.8073 151.043 84.797Z" fill="#252525"/>
<path fill-rule="evenodd" clip-rule="evenodd" d="M49.8772 95.898H64.4342V92.9833H53.15V86.4293H61.5195C62.3439 86.4293 62.0691 85.4966 62.0691 83.5145H53.15V76.6024H64.4342V73.6877H49.8772V95.898Z" fill="#252525"/>
<path fill-rule="evenodd" clip-rule="evenodd" d="M103.508 53.5427L107.872 49.0873L112.327 53.4511L107.963 57.9065L103.508 53.5427ZM100.052 53.4511L115.517 69.0075C115.683 65.0767 116.058 66.0927 113.518 63.5527C112.56 62.595 110.379 60.6297 109.746 59.6886L114.068 55.2749L115.533 56.6323C115.567 52.4184 115.75 53.4094 113.526 51.1776C112.569 50.2199 110.387 48.2545 109.754 47.3135C110.378 46.3808 112.502 44.4737 113.435 43.541C113.835 43.1412 115.125 41.967 115.35 41.6339C115.833 40.9177 115.575 39.0856 115.575 38.0363L100.052 53.4511Z" fill="#252525"/>
<path fill-rule="evenodd" clip-rule="evenodd" d="M175.977 76.6107H182.523V95.898H185.804V76.6107H192.35V73.696H175.977V76.6107Z" fill="#252525"/>
<path fill-rule="evenodd" clip-rule="evenodd" d="M72.6204 95.898H84.271V92.9832H75.8932V73.696H72.6204V95.898Z" fill="#252525"/>
<path fill-rule="evenodd" clip-rule="evenodd" d="M92.4573 95.898H104.1V92.9832H95.7301V73.696H92.4573V95.898Z" fill="#252525"/>
<path fill-rule="evenodd" clip-rule="evenodd" d="M112.286 95.898H115.567V73.696H112.286V95.898Z" fill="#252525"/>
<path fill-rule="evenodd" clip-rule="evenodd" d="M151.41 107.907C151.41 103.893 157.231 103.893 157.231 107.907C157.231 111.854 151.41 111.854 151.41 107.907ZM150.319 107.54C150.319 113.57 158.322 113.128 158.322 107.907C158.322 105.858 156.848 103.901 154.866 103.901H153.775C151.985 103.901 150.319 105.758 150.319 107.54Z" fill="#252525"/>
<path fill-rule="evenodd" clip-rule="evenodd" d="M194.715 107.182H193.257V105C194.307 105 195.073 104.959 195.397 105.125C196.355 105.617 196.197 107.182 194.715 107.182ZM192.166 111.729H193.257V108.273C194.431 108.273 194.223 108.398 195.114 109.88C195.522 110.555 195.814 111.055 196.172 111.737H197.446C196.971 110.838 195.581 108.69 195.447 108.098C197.796 107.907 197.721 104.093 194.898 104.093H192.166V111.729Z" fill="#252525"/>
<path fill-rule="evenodd" clip-rule="evenodd" d="M140.675 107.182H138.852V105H139.759C140.759 105 141.583 105.242 141.583 106.274C141.583 106.699 141.1 107.182 140.675 107.182ZM137.761 111.729H138.852V108.273C139.976 108.273 139.818 108.132 140.609 109.606C140.95 110.238 141.608 111.155 141.766 111.729H143.041C142.749 110.638 141.333 109.181 141.042 108.09C143.39 107.898 143.315 104.084 140.492 104.084H137.761V111.729Z" fill="#252525"/>
<path fill-rule="evenodd" clip-rule="evenodd" d="M179.067 111.729H184.164V110.638H180.158V108.273H183.797V107.182H180.158V105H183.98V104.084H179.067V111.729Z" fill="#252525"/>
<path fill-rule="evenodd" clip-rule="evenodd" d="M227.468 111.729H232.564V110.638H228.559V108.273H232.198V107.182H228.559V105H232.381V104.084H227.468V111.729Z" fill="#252525"/>
<path fill-rule="evenodd" clip-rule="evenodd" d="M240.21 106.091C240.21 108.814 244.032 107.823 244.032 109.914C244.032 110.938 241.509 111.371 241.117 109.914C240.684 110.139 240.493 110.33 240.026 110.463C240.484 112.171 245.123 113.12 245.123 109.372C245.123 106.782 241.484 108.381 241.484 105.733C241.484 105.142 242.391 104.892 242.783 104.875C243.716 104.842 243.641 105.35 244.398 105.55C244.832 105.258 244.59 105.333 245.123 105.183C244.582 103.168 240.21 103.476 240.21 106.091Z" fill="#252525"/>
<path fill-rule="evenodd" clip-rule="evenodd" d="M168.882 107.182H167.424V105H168.332C170.68 105 170.589 107.182 168.882 107.182ZM166.333 111.729H167.424V108.273C168.948 108.273 171.247 108.481 171.247 106.091C171.247 103.601 168.165 104.093 166.333 104.093V111.729Z" fill="#252525"/>
<path fill-rule="evenodd" clip-rule="evenodd" d="M127.576 107.182H126.119V105C128.242 105 128.667 105.075 128.667 106.458C128.667 107.016 128.134 107.182 127.576 107.182ZM125.028 111.729H126.119V108.273H127.576C130.674 108.273 130.516 104.084 127.942 104.084H125.028V111.729Z" fill="#252525"/>
<path fill-rule="evenodd" clip-rule="evenodd" d="M204.175 105H206.724V111.729H207.815V105H210.363V104.084H204.175V105Z" fill="#252525"/>
<path fill-rule="evenodd" clip-rule="evenodd" d="M218.008 111.729H219.099V104.084H218.008V111.729Z" fill="#252525"/>
</svg>
