<svg width="295" height="150" viewBox="0 0 295 150" fill="none" xmlns="http://www.w3.org/2000/svg">
<rect width="295" height="150" rx="10" fill="white"/>
<path fill-rule="evenodd" clip-rule="evenodd" d="M88.9451 91.9985H93.3544C93.0872 88.7839 93.042 88.852 93.6307 84.8592L95.6472 69.3972C95.8156 69.5912 95.6396 69.3282 95.8719 69.7019C95.9828 69.8804 95.9431 69.8174 96.0615 70.0418C96.2225 70.3472 96.2465 70.4303 96.4273 70.735L107.464 91.9985H109.757C110.912 90.2713 116.193 79.9064 117.686 77.3351L121.221 70.4567C121.81 70.8888 121.478 70.4124 121.589 71.3243L122.028 74.5923C122.743 79.6934 123.69 84.9208 123.69 90.0563C123.69 91.0365 123.514 91.1034 123.514 91.9985H130.745C130.576 91.2742 130.392 91.0065 130.145 90.3031C129.925 89.672 129.756 89.0583 129.613 88.3642C129.327 86.983 129.177 85.3862 128.991 84.0429L125.454 58.0965H123.69C123.469 59.048 114.623 75.6297 113.458 77.8704C112.952 78.8434 110.435 84.0375 109.933 84.4059L106.584 77.8714C106.284 77.2678 105.994 76.855 105.698 76.2858L99.7015 64.8086C99.1487 63.7455 96.5203 58.8166 96.3528 58.0965H94.06L90.7088 83.876C90.546 85.3603 90.3507 86.7273 90.1046 88.2152C89.8416 89.8053 89.5071 90.826 88.9451 91.9985Z" fill="#252525"/>
<path fill-rule="evenodd" clip-rule="evenodd" d="M212.051 74.5178L209.229 74.3412V60.2153C212.699 60.2153 215.303 60.1278 218.123 62.0828C222.08 64.8262 221.367 70.9987 218.406 73.1105C216.788 74.2639 214.805 74.5178 212.051 74.5178ZM203.585 62.8639C203.585 67.2109 203.851 86.8197 203.337 89.6307C203.165 90.5687 202.775 91.1439 202.704 91.9985H210.111C209.801 90.6666 209.229 89.6433 209.229 87.9373V76.2834C210.872 76.3201 212.733 78.608 213.939 80.0437L224.087 90.5431C225.597 91.8744 224.655 92.0134 227.395 91.9991C229.04 91.9905 230.688 91.9985 232.334 91.9985C232.158 91.3411 229.158 88.4776 228.496 87.8945L216.46 76.1069C219.214 76.1069 221.523 75.2065 223.567 73.6872C226.622 71.4172 227.315 67.5435 226.011 63.8967C224.945 60.9143 221.713 59.4062 218.721 58.6588C214.705 57.6556 207.659 58.0965 202.704 58.0965C203.123 59.8979 203.585 60.1898 203.585 62.8639Z" fill="#252525"/>
<path fill-rule="evenodd" clip-rule="evenodd" d="M147.5 67.2783C147.927 67.7697 150.505 73.7347 150.853 74.5154C151.189 75.268 151.704 76.1077 151.909 76.9898H143.267L146.467 69.7751C146.771 69.0267 147.3 68.1367 147.5 67.2783ZM132.156 91.9985H136.565C137.803 89.656 140.533 82.7664 142.032 79.6384H153.32C153.38 80.362 156.799 87.4799 157.352 88.845C157.773 89.885 158.291 91.0581 158.788 91.9985H166.195C166.004 91.2832 164.795 90.5392 163.476 88.5406C162.787 87.4968 160.085 81.5984 159.391 79.9171L149.616 58.0965H147.853L139.326 77.2822C138.982 77.9944 138.615 78.8427 138.353 79.4866L133.429 90.0949C133.055 90.6899 132.321 91.3798 132.156 91.9985Z" fill="#252525"/>
<path fill-rule="evenodd" clip-rule="evenodd" d="M182.421 67.4549H182.774C182.901 68.0019 183.01 68.0796 183.243 68.5743L187.007 76.9898H178.365C178.513 76.3536 179.064 75.2769 179.363 74.6351C179.752 73.8028 180.023 73.1541 180.379 72.297C180.709 71.5015 181.05 70.7616 181.422 69.986C181.685 69.4366 182.376 67.9939 182.421 67.4549ZM167.253 91.9985H171.662C171.866 91.1259 175.803 82.677 176.498 80.9484C176.696 80.4568 176.934 79.6385 177.483 79.6385H187.888C188.48 79.6385 189.249 81.8182 189.5 82.4388C190.153 84.0457 193.428 90.7942 193.709 91.9985H201.292C200.891 91.3984 199.386 90.0451 198.477 88.4601C197.198 86.228 195.56 82.3951 194.412 79.8174L185.477 60.1573C184.556 58.1782 185.093 58.0965 183.303 58.0965C182.693 58.0965 182.607 58.893 182.127 59.9215L173.487 79.3461C173.111 80.1245 172.861 80.7387 172.485 81.5217L170.077 86.8802C169.475 88.2315 169.383 88.6384 168.479 90.0476C168.097 90.6431 167.455 91.2431 167.253 91.9985Z" fill="#252525"/>
<path fill-rule="evenodd" clip-rule="evenodd" d="M63.5481 63.7468C63.5481 68.3243 63.8025 86.1908 63.3015 89.4562C63.1308 90.5683 62.6861 91.1094 62.6663 91.9985H86.8289C86.8571 90.7288 87.358 89.3885 87.358 88.1139C86.2529 88.6994 84.8041 89.35 83.1252 89.35H69.192V76.2835H83.1252C83.8232 76.2835 84.1689 74.2848 84.1833 73.6349H69.1919V60.5685C72.0509 60.5685 82.2701 60.2736 84.3856 60.8956C85.1545 61.1217 85.6336 61.4725 86.2997 61.6279V58.0964H62.6663C62.7786 59.449 63.5481 59.6771 63.5481 63.7468Z" fill="#252525"/>
</svg>
