<svg width="530" height="263" viewBox="0 0 530 263" fill="none" xmlns="http://www.w3.org/2000/svg">
<path fill-rule="evenodd" clip-rule="evenodd" d="M111.091 239.531L164.594 239.499L164.633 241.069L111.124 241.072L111.091 239.531ZM110.05 197.242C110.886 197.282 110.669 196.939 110.66 199.265L110.66 207.736C110.66 212.183 110.829 239.076 110.623 241.03L109.934 241.072C109.726 239.722 109.875 237.115 109.876 235.64L109.87 198.596C109.868 198.435 109.857 198.074 109.87 197.931L110.05 197.242ZM104.015 197.224L109.448 197.232L109.459 241.072L104.012 241.07L104.015 197.224ZM147.718 197.817L164.612 197.797L164.642 239.075L147.762 239.08L147.718 197.817ZM142.301 239.039L128.51 239.08C128.324 237.848 128.328 231.705 128.716 230.911C129.935 228.415 140.616 228.345 142.035 230.849C142.538 231.737 142.443 237.64 142.301 239.039ZM111.089 228.765L125.049 228.74L125.115 239.062L111.123 239.079L111.089 228.765ZM281.115 222.949L282.837 222.876L282.857 224.124L281.135 224.123L281.115 222.949ZM277.028 187.168L280.669 187.175L280.706 224.135L277.076 224.148L277.028 187.168ZM281.107 221.272L282.868 221.187L282.842 222.454L281.141 222.447L281.107 221.272ZM283.285 188.838L285.454 188.854L285.513 222.459L283.277 222.472L283.285 188.838ZM282.523 206.703C282.953 206.917 282.898 206.931 282.876 208.231L282.872 217.37C282.872 217.944 283.148 220.786 282.528 220.785C281.887 220.784 282.198 214.582 282.198 213.882L282.196 208.399C282.193 208.172 282.163 207.57 282.182 207.388C282.278 206.46 282.074 206.949 282.523 206.703ZM281.196 206.758L281.694 206.729C281.888 208.065 281.864 219.198 281.698 220.794C280.789 220.711 281.11 220.359 281.111 217.868C281.111 215.97 280.979 207.429 281.196 206.758ZM111.084 204.576L113.98 204.532L113.977 219.333L111.095 219.398L111.084 204.576ZM114.616 215.938C114.383 215.268 113.974 208.403 114.919 207.941C115.088 207.859 120.778 207.118 122.703 209.014C124.451 210.736 124.235 213.566 122.509 215.068C121.552 215.9 120.557 216.096 119.006 216.09C117.78 216.086 115.602 216.208 114.616 215.938ZM281.113 205.135L282.868 205.017L282.881 206.282L281.102 206.257L281.113 205.135ZM282.523 190.54C282.966 190.794 282.898 190.847 282.876 192.121V203.089C282.91 205.052 282.929 204.423 282.523 204.626C282.098 204.392 282.174 204.341 282.194 203.089L282.194 192.121C282.162 190.201 282.156 190.774 282.523 190.54ZM281.528 204.626C280.868 204.427 281.088 204.121 281.105 203.26L281.111 193.951C281.111 193.239 280.84 190.653 281.402 190.548C282.054 190.427 281.777 196.459 281.777 197.439C281.777 198.486 282.067 204.181 281.528 204.626ZM147.327 239.052L142.794 239.078C142.098 232.688 145.594 228.626 135.424 228.614C133.154 228.611 129.587 228.945 128.476 230.509C127.702 231.597 128.024 237.289 128.036 239.089L125.502 239.062L125.502 228.366L111.096 228.32L111.083 219.854L114.272 219.792C114.591 218.838 114.374 217.292 114.421 216.249C115.606 216.682 119.783 216.711 121.104 216.314C125.488 214.997 125.334 208.996 121.247 207.654C120.026 207.252 115.479 207.211 114.426 207.681C114.361 206.588 114.605 205.167 114.28 204.161L111.091 204.106L111.085 197.285C112.78 197.063 120.427 197.231 123.152 197.231C126.327 197.232 124.67 197.174 126.956 196.918L126.952 178.39C131.42 178.284 136.566 180.735 139.124 183.764C142.186 187.39 143.702 190.406 143.628 196.866C146.414 197.605 160.608 197.231 164.59 197.272C163.611 197.749 149.868 197.288 147.336 197.416L147.327 239.052ZM96.1433 195.174L97.2151 195.157L97.2209 197.004L96.2211 197.022L96.1433 195.174ZM73.2141 195.153L74.3106 195.171L74.3158 196.992L73.3102 197.034L73.2141 195.153ZM144.081 195.516L144.843 195.492L144.89 196.566L144.094 196.564L144.081 195.516ZM125.693 195.521L126.471 195.478L126.524 196.588L125.702 196.554L125.693 195.521ZM281.125 188.909L282.811 188.847L282.891 190.123L281.105 190.107L281.125 188.909ZM186.811 188.002L187.962 188.024L188.034 188.994L186.778 189.017L186.811 188.002ZM281.12 187.242L281.858 187.159L282.025 187.173L282.832 187.183L282.883 188.45L281.111 188.44L281.12 187.242ZM276.789 241.049L166.637 241.073L166.612 197.253L188.439 197.23L188.465 187.7L167.535 187.618C167.191 179.881 172.926 172.547 179.816 169.98C181.111 169.497 182.325 169.175 183.769 168.956C185.02 168.766 187.585 168.914 188.424 168.643L188.529 162.285L276.787 162.285C277.024 165.762 276.809 177.601 276.812 181.992C276.814 185.317 276.612 188.3 276.612 191.625V221.522C276.612 222.275 276.554 223.28 276.613 224.003C276.863 227.114 276.811 227.871 276.812 231.155C276.813 234.289 276.989 237.984 276.789 241.049ZM24.8266 158.889L30.2617 158.843L30.2654 178.365L24.8341 178.395L24.8266 158.889ZM31.875 161.282L34.8066 161.289L34.7877 176.129L31.9358 176.145L31.875 161.282ZM69.2574 170.324L70.3604 170.358L70.3401 171.118L69.2892 171.179L69.2574 170.324ZM35.3787 164.816C36.9785 164.189 41.7081 164.406 43.0426 165.391C46.1042 167.65 44.9402 172.735 40.5717 172.857C34.3604 173.032 35.2086 173.376 35.2068 169.203C35.2062 167.793 35.0437 166.044 35.3787 164.816ZM186.775 167.331L187.998 167.358L187.987 168.312L186.848 168.326L186.775 167.331ZM31.8837 157.711C36.4277 156.673 43.5721 159.789 46.2087 154.417C47.149 152.501 46.7956 148.672 46.7953 146.282C46.795 143.371 46.87 140.359 46.7798 137.46L51.9756 137.467C51.9157 139.265 51.6638 144.976 52.3267 146.128C53.8721 148.815 64.7637 148.793 66.2848 146.137C66.9443 144.985 66.696 139.253 66.632 137.502L68.62 137.452C68.5725 140.696 68.2699 150.828 68.9792 153.197C74.5713 153.011 78.0384 154.28 81.9573 157.643C84.5459 159.864 87.5391 164.568 87.4232 169.914L68.9394 169.9C68.454 172.569 68.624 175.608 68.6104 178.398L31.9404 178.396L31.882 176.646C32.3932 176.541 32.9154 176.57 33.4307 176.577C34.0511 176.586 34.6903 176.665 35.1715 176.383L35.2134 173.016C36.4191 173.405 40.9118 173.437 42.1836 172.987C43.7678 172.427 45.1775 170.781 45.1751 168.705C45.1726 166.606 43.799 164.995 42.1652 164.444C40.9114 164.022 36.3835 163.995 35.2076 164.438L35.1991 161.045L34.4348 160.852C33.7731 160.789 32.6989 160.972 31.8972 160.775L31.8837 157.711ZM186.821 158.122L187.954 158.13L188.043 159.105L186.773 159.117L186.821 158.122ZM24.8525 157.742C25.5368 157.449 30.2625 157.638 31.3959 157.64C31.6343 158.748 31.5709 177.78 31.3509 178.407L30.741 178.389L30.6707 158.433L24.8047 158.433L24.8525 157.742ZM24.8268 151.929L24.8269 138.144L24.8147 137.457L26.4394 137.477L26.4179 138.144L26.4222 143.126L26.4217 157.196L24.8271 157.237L24.8268 151.929ZM26.8248 157.219L26.8206 137.47L46.3944 137.459C46.3682 140.729 46.3905 144.008 46.3905 147.279C46.3905 150.609 46.8972 153.554 44.8809 155.587C42.7389 157.748 40.3246 157.239 36.7497 157.241C33.5384 157.243 29.996 157.379 26.8248 157.219ZM69.2732 151.926L70.3437 151.942L70.341 152.684L69.2941 152.767L69.2732 151.926ZM66.2501 137.486C66.1897 139.122 66.5665 144.787 65.967 145.814C65.0799 147.335 61.5528 147.725 59.3064 147.724C57.027 147.723 53.5772 147.42 52.6391 145.814C52.0213 144.756 52.381 139.12 52.3386 137.459L66.2501 137.486ZM186.771 137.459L188.042 137.463L187.971 138.432L186.806 138.45L186.771 137.459ZM186.3 138.424L167.102 138.441C167.218 149.497 175.293 157.648 186.301 158.135C186.746 161.007 186.774 165.44 186.297 168.311C179.92 168.763 175.876 170.895 172.711 174.161C169.678 177.29 167.11 181.71 167.109 187.982L186.304 188.016C186.611 190.272 186.662 192.837 186.534 195.265C174.554 195.077 161.54 195.257 149.354 195.257C147.406 195.257 145.864 195.169 144.087 195.061C143.497 190.151 142.984 187.867 139.97 184.081L136.574 181.009C134.16 179.325 129.405 177.489 126.52 178.033L126.494 195.087C125.109 195.091 124.333 195.359 121.854 195.236L121.836 161.076L104.254 161.033L104.248 162.983L119.879 163.006L119.877 195.257L104.041 195.258L103.997 192.412L97.3566 192.374L97.217 194.71L95.7082 194.751L95.7139 196.901C95.7233 197.082 95.7605 197.214 95.7721 197.439C95.6319 198.08 96.0096 217.283 95.6865 218.387C92.943 218.579 88.2561 217.232 86.2063 216.171C82.768 214.39 79.7281 211.575 77.7158 208.236C74.9341 203.621 74.7913 200.046 74.7314 194.75L73.2597 194.741L73.2088 192.427L70.6519 192.364C70.2689 190.487 70.5819 183.565 70.5816 181.162C70.5814 180.232 70.2044 170.55 71.0784 170.311L87.8013 170.313C88.5979 166.389 85.1697 159.51 81.8318 156.94C77.5328 153.629 76.47 153.588 70.8021 152.723C70.7 150.851 70.5826 151.631 70.5819 148.774L70.5645 136.258C72.1854 136.207 76.8306 136.491 77.9529 136.055C78.1164 132.5 77.9866 130.698 79.2183 127.515C80.6852 123.724 82.0091 122.504 84.257 120.12C84.5411 119.818 85.1974 119.309 85.6229 118.996C88.6899 116.736 92.7142 115.219 96.8277 115.23L96.8262 136.102C97.9404 136.358 105.688 136.359 106.841 136.106L106.873 115.223C109.874 115.257 112.586 116.027 114.834 117.081C115.957 117.608 116.999 118.252 117.944 118.944C118.37 119.256 119.051 119.742 119.346 120.033C121.46 122.108 123.209 124.242 124.425 127.4C125.672 130.64 125.557 132.407 125.718 136.072C126.889 136.453 152.512 136.244 155.988 136.243C166.173 136.237 176.389 136.324 186.571 136.238L186.3 138.424ZM126.161 134.514L127.09 134.553L127.039 135.738L126.145 135.744L126.161 134.514ZM97.2762 134.493L98.2187 134.568L98.1753 135.732L97.2707 135.754L97.2762 134.493ZM76.5972 134.524L77.5423 134.503L77.4828 135.756L76.5857 135.744L76.5972 134.524ZM106.406 134.525C106.429 134.716 106.487 134.962 106.469 135.163C106.394 135.973 106.403 135.495 106.236 135.75L105.739 135.753C105.393 135.305 105.617 136.197 105.461 135.164C105.438 135.012 105.507 134.662 105.526 134.503L106.406 134.525ZM25.0097 105.588L39.076 105.599C38.9796 107.92 39.0571 110.394 39.0571 112.732C39.0571 114.067 39.2205 118.655 38.9684 119.619L25.0285 119.591L25.0097 105.588ZM104.166 55.6913C104.518 54.5042 104.264 43.4304 104.265 41.146C104.266 38.7499 104.142 28.2518 104.305 26.7842C110.026 26.5214 116.366 26.7672 122.157 26.7672C125.152 26.7672 127.771 26.9676 130.78 26.9677C133.765 26.9678 136.751 26.9676 139.736 26.9677L166.602 26.968C169.593 26.9684 172.224 26.7672 175.231 26.7671L175.238 34.0073L186.558 34.0164L186.571 134.267L141.228 134.269C138.685 134.267 136.142 134.27 133.6 134.27L126.22 134.069C125.712 132.538 126.156 129.875 124.338 126.16C122.186 121.763 119.021 118.38 114.457 116.452C113.349 115.984 107.671 114.181 106.61 114.906C106.356 115.16 106.455 116.868 106.455 117.216C106.457 120.84 106.627 132.157 106.41 134.026L104.267 134.269L104.208 107.295L101.366 107.28L101.349 55.7363L104.166 55.6913ZM281.122 96.2724L282.879 96.3058L282.827 97.5713L281.134 97.5884L281.122 96.2724ZM277.026 53.365L280.706 53.3826C280.708 67.9685 280.827 82.996 280.663 97.5779L277.028 97.5878L277.026 53.365ZM283.278 55.0567L285.518 55.0631L285.432 95.8837L283.316 95.8865C283.138 84.0142 283.282 69.3168 283.29 57.2569L283.278 55.0567ZM281.125 94.5908L282.881 94.6213L282.785 95.8811L281.161 95.8883L281.125 94.5908ZM282.523 94.1809C282.046 93.9397 282.21 94.3291 282.176 93.3186L282.182 77.1723C282.276 76.2874 282.076 76.7381 282.523 76.5164C283.014 76.7377 282.851 76.4524 282.893 77.3338C283.051 80.662 282.841 88.3579 282.872 92.3028C282.892 94.7971 283.017 93.9552 282.523 94.1809ZM281.362 94.1809C280.951 93.8565 281.112 94.0991 281.093 93.3148L281.196 76.5422L281.694 76.565C281.917 77.222 281.75 89.7477 281.779 92.4705C281.8 94.5187 281.909 94.023 281.362 94.1809ZM25.0065 71.8174L39.058 71.8371L39.0715 85.8674L25.0238 85.8077L25.0065 71.8174ZM281.111 74.8699L282.866 74.8549L282.886 76.1027L281.136 76.0542L281.111 74.8699ZM282.198 58.9178C282.201 56.8761 281.954 57.0197 282.523 56.756C283.055 56.9792 282.794 56.4261 282.872 57.2569C283.041 60.8654 282.836 68.1683 282.872 72.5379C282.892 74.9288 282.965 74.1922 282.523 74.4225C282.188 74.2307 282.172 74.3053 282.186 73.2123L282.198 58.9178ZM281.362 74.4215C280.911 74.0355 281.108 73.0192 281.11 72.3716C281.119 69.6877 280.961 57.4476 281.199 56.7669L281.778 56.8409L281.777 70.5442C281.777 72.2038 282.089 74.1909 281.362 74.4215ZM24.8654 26.7842C27.6243 26.6633 33.6726 26.6201 36.4502 26.9549L62.1231 26.9675C74.4894 26.9683 86.8341 26.4602 99.4144 26.7763L99.3657 134.252C98.8234 134.276 97.3692 134.216 97.2336 133.825L97.2326 114.91C95.0114 114.415 90.8912 115.729 89.102 116.498C84.6046 118.432 81.3554 121.896 79.29 126.269C77.5125 130.032 78.078 131.566 77.473 134.084C76.4492 134.072 75.6386 134.271 74.3955 134.268C73.2898 134.266 72.1839 134.265 71.0784 134.273L51.1777 134.269C42.5218 134.265 33.477 134.016 24.8291 134.281L24.8361 120.019L39.461 119.988L39.4612 105.182L24.8309 105.161L24.8308 86.2768L39.347 86.2446C39.5879 85.4783 39.594 72.2925 39.3562 71.4102L24.8265 71.3675L24.8654 26.7842ZM281.106 55.0977L282.894 55.0788L282.787 56.3599L281.13 56.3061L281.106 55.0977ZM281.105 53.4445L281.86 53.3669L282.026 53.3612L282.875 53.3976L282.88 54.6775L281.109 54.5511L281.105 53.4445ZM198.175 26.7744L205.079 26.7629C205.851 26.8031 205.93 26.9778 206.891 26.9741C209.879 26.9627 212.868 26.9683 215.856 26.968C218.688 26.9677 241.435 27.1324 243.025 26.9596C243.735 26.8826 243.965 26.7591 245.04 26.7657L269.578 26.7692L269.58 49.6809L276.783 49.7016C276.932 51.5628 276.6 52.892 276.611 54.5972L276.606 96.7956C276.602 97.8035 276.817 98.1085 276.818 99.1025C276.819 99.9908 276.813 100.881 276.813 101.77C276.809 112.045 277.016 150.237 276.804 160.304L269.582 160.323L269.505 160.32L188.531 160.323L188.424 157.811C187.357 157.555 185.136 157.713 183.737 157.506C182.375 157.304 180.973 156.916 179.799 156.485C177.884 155.783 174.839 153.974 173.646 152.679C173.089 152.075 172.995 152.027 172.402 151.438C169.763 148.817 167.222 142.685 167.552 138.837C170.33 138.838 187.249 139.024 188.498 138.749L188.507 34.0096L198.124 34.0086L198.175 26.7744ZM206.134 22.866L243.025 22.9072L243.039 26.55L206.124 26.4861L206.134 22.866ZM126.71 22.949C127.986 22.6657 145.955 22.8612 148.857 22.8657C151.792 22.8704 169.527 22.6602 170.843 22.947L170.85 26.5494L126.701 26.4691L126.71 22.949ZM36.4539 22.8648L73.3458 22.9294L73.3564 26.549L36.4422 26.5234L36.4539 22.8648ZM241.797 20.7226L243.031 20.7386L242.955 22.4623L241.799 22.4344L241.797 20.7226ZM240.115 20.7073L241.345 20.7672L241.287 22.4554L240.117 22.4489L240.115 20.7073ZM239.622 22.4287C238.439 22.5648 226.187 22.5589 225.645 22.3775L225.672 21.7988L239.647 21.8339L239.622 22.4287ZM223.973 20.7114L225.229 20.6862L225.105 22.4698L223.983 22.4595L223.973 20.7114ZM212.871 22.4679C211.807 22.4679 209.869 22.6646 209.495 22.2115C209.689 21.5375 210.209 21.7797 211.042 21.7925L220.333 21.7955C222.212 21.7955 223.317 21.4823 223.546 22.2115C223.191 22.6375 222.673 22.4798 221.996 22.471L212.871 22.4679ZM206.138 20.7318L207.414 20.6937L207.322 22.4736L206.143 22.4344L206.138 20.7318ZM169.571 20.6776L170.846 20.7828L170.797 22.4482L169.58 22.4696L169.571 20.6776ZM167.891 20.703L169.162 20.6901L169.043 22.4684L167.902 22.4671L167.891 20.703ZM167.358 22.4679C165.069 22.4679 150.802 22.6944 149.859 22.3776C149.769 21.466 150.598 21.7844 151.508 21.7941C154.294 21.8238 166.7 21.6382 167.442 21.8825L167.358 22.4679ZM148.164 20.6961L149.406 20.6964L149.301 22.468L148.174 22.4695L148.164 20.6961ZM147.682 22.3776C146.771 22.6874 132.449 22.4679 130.15 22.4711L130.139 21.7968L147.702 21.8791L147.682 22.3776ZM128.427 20.6978L129.695 20.6986L129.576 22.4678L128.435 22.4703L128.427 20.6978ZM126.713 20.7379L128.006 20.6926L127.898 22.4751L126.718 22.4258L126.713 20.7379ZM72.1233 20.7074L73.3513 20.7606L73.2926 22.4559L72.1193 22.4464L72.1233 20.7074ZM62.9523 22.468C61.6726 22.4681 56.8281 22.6551 55.9932 22.3776C55.9093 21.5195 56.4252 21.7717 57.3052 21.7894C57.9158 21.8017 58.5271 21.7955 59.138 21.7955H66.7665C68.619 21.7955 69.7486 21.4846 69.9948 22.2115C69.624 22.635 69.1116 22.4799 68.4285 22.4709L62.9523 22.468ZM54.2902 20.7062L55.549 20.6828L55.4341 22.4689L54.2988 22.4664L54.2902 20.7062ZM38.1413 20.7275L39.4268 20.7094L39.3293 22.4709L38.1458 22.4364L38.1413 20.7275ZM36.4615 20.7098L37.741 20.7092L37.6645 22.4684L36.4653 22.4516L36.4615 20.7098ZM208.999 22.4679C207.462 22.4688 207.761 22.5181 207.817 20.7461L209.112 20.6953L208.999 22.4679ZM70.4226 20.6924L71.6536 20.7951C71.664 21.0575 71.6968 21.4725 71.6862 21.7209C71.6516 22.537 71.7732 22.1515 71.41 22.4726L70.3951 22.449L70.4226 20.6924ZM43.0516 21.7955C44.9323 21.7955 53.1521 21.6554 53.8421 21.8824L53.7587 22.4686L42.8857 22.468C41.811 22.4679 39.7023 22.7246 39.8244 22.0867C39.9308 21.5305 42.3517 21.7955 43.0516 21.7955ZM227.129 21.378C225.344 21.4064 225.793 21.3741 225.623 21.0489C225.905 20.735 225.147 20.8123 226.287 20.6817L232.771 20.698C233.489 20.6978 239.674 20.3769 239.672 21.043C239.671 21.6447 236.83 21.3735 236.254 21.3734L227.129 21.378ZM211.043 21.3772C209.782 21.3976 209.735 21.4764 209.495 21.0489C209.909 20.6169 209.048 20.8021 210.2 20.6783L220.168 20.6983C220.776 20.6982 221.386 20.7059 221.995 20.6946C222.13 20.6921 222.92 20.6772 222.994 20.6919C223.524 20.7969 223.319 20.6002 223.546 21.0489C223.269 21.5442 223.877 21.2922 222.838 21.3929L211.043 21.3772ZM150.499 21.3904C149.557 21.2939 150.065 21.5063 149.808 21.0489C150.098 20.7437 149.392 20.7343 150.662 20.6769L165.607 20.697C167.984 20.6776 167.245 20.5796 167.455 21.0489C167.225 21.5203 167.563 21.3604 166.621 21.3954L158.641 21.3731C157.093 21.373 155.546 21.3736 153.998 21.3735L150.499 21.3904ZM131.94 21.3738C129.613 21.3901 130.307 21.481 130.088 21.0489C130.386 20.7047 129.626 20.7294 130.926 20.6751C134.594 20.5219 141.682 20.7365 145.872 20.6974C148.173 20.6759 147.517 20.6209 147.728 21.0489C147.472 21.5206 147.743 21.3576 146.886 21.3935C143.241 21.5458 136.087 21.3448 131.94 21.3738ZM57.476 21.3778C55.6563 21.4072 56.1296 21.3785 55.9446 21.0489C56.306 20.6688 55.4294 20.8141 56.6335 20.68L68.4274 20.6943C69.8007 20.6699 69.7626 20.6149 69.9945 21.0489C69.7086 21.5351 70.3225 21.2911 69.2715 21.3927L57.476 21.3778ZM40.3896 21.3801C39.8721 21.2867 40.0577 21.4563 39.8198 21.0489C40.2575 20.6099 39.3513 20.8018 40.5457 20.6776L52.3422 20.6945C53.835 20.6676 53.6748 20.638 53.8562 21.0489C53.6082 21.5636 54.1925 21.2956 53.1846 21.3937L41.3907 21.3773C41.2376 21.3799 40.4848 21.3973 40.3896 21.3801ZM207.815 18.1448C208.972 17.8684 239.259 18.061 241.336 18.054L241.356 20.2922C235.737 20.2561 230.1 20.293 224.479 20.2856C221.785 20.2821 209.403 20.6282 207.804 20.1792L207.815 18.1448ZM128.407 18.0553L169.149 18.054L169.163 20.288L128.393 20.2883L128.407 18.0553ZM38.1412 18.0542L71.6648 18.1382L71.6785 20.1844C70.5359 20.4868 64.8909 20.289 63.2839 20.2885L38.1208 20.2896L38.1412 18.0542ZM20 17.727V183.321H65.6057V197.272H71.41C72.611 197.272 73.0709 197.439 74.2293 197.439C74.2293 200.784 75.0676 203.625 76.0993 206.029C77.2398 208.688 79.2528 211.672 81.5506 213.525C83.1911 214.848 84.0138 215.686 86.2774 216.763C89.3563 218.229 91.9449 218.864 95.7884 218.864C96.1705 218.864 96.2859 218.749 96.2859 218.366V197.439L99.6026 197.272V245.439H285.84C285.84 230.042 286.006 215.165 286.006 199.764C286.006 192.002 285.84 184.775 285.84 177.009L286.006 60.9109C286.006 54.5244 285.84 48.3465 285.84 41.8104C285.84 35.3328 285.84 28.8552 285.84 22.3776C285.84 16.7868 287.181 17.727 280.865 17.727H251.677C245.131 17.727 239.131 17.5609 232.605 17.5609C226.138 17.5609 219.67 17.5609 213.202 17.5609C209.847 17.5609 206.992 17.727 203.749 17.727H174.562C171.208 17.727 168.436 17.5609 165.109 17.5609H136.087C129.549 17.5609 123.459 17.727 116.85 17.727L58.8063 17.5609C45.683 17.5609 33.086 17.727 20 17.727Z" fill="white"/>
<rect x="215.086" y="113.766" width="31.9207" height="31.9207" fill="white"/>
<path d="M228.535 119.127V117.333C229.887 117.333 230.823 117.099 231.551 116.553H233.098V125.653H231.278V118.672C230.498 118.984 229.653 119.127 228.535 119.127ZM218.671 135.127V133.333C220.023 133.333 220.959 133.099 221.687 132.553H223.234V141.653H221.414V134.672C220.634 134.984 219.789 135.127 218.671 135.127ZM224.472 137.116C224.472 134.386 226.344 132.358 228.879 132.358C231.414 132.358 233.273 134.269 233.273 137.116C233.273 139.924 231.414 141.848 228.879 141.848C226.357 141.848 224.472 139.82 224.472 137.116ZM226.292 137.116C226.292 138.871 227.371 140.106 228.892 140.106C230.413 140.106 231.453 138.871 231.453 137.116C231.453 135.322 230.413 134.1 228.892 134.1C227.358 134.1 226.292 135.322 226.292 137.116ZM236.369 137.935V141.653H234.549V132.553H236.369V136.271H237.409L240.958 132.553H243.428L239.112 137.103L243.766 141.653H241.231L237.37 137.935H236.369Z" fill="#252525"/>
<line x1="244" y1="128.443" x2="218" y2="128.443" stroke="#252525" stroke-width="0.886685"/>
<path d="M300.072 130.613C299.582 130.613 299.185 131.01 299.185 131.5C299.185 131.99 299.582 132.387 300.072 132.387L300.072 130.613ZM351.699 132.127C352.045 131.781 352.045 131.219 351.699 130.873L346.056 125.23C345.71 124.884 345.148 124.884 344.802 125.23C344.456 125.576 344.456 126.138 344.802 126.484L349.818 131.5L344.802 136.516C344.456 136.862 344.456 137.424 344.802 137.77C345.148 138.116 345.71 138.116 346.056 137.77L351.699 132.127ZM300.072 132.387L351.072 132.387L351.072 130.613L300.072 130.613L300.072 132.387Z" fill="white"/>
<g filter="url(#filter0_d_93_1208)">
<rect x="365.138" y="30.3087" width="144.559" height="202.383" rx="6.30803" fill="white"/>
<rect x="365.27" y="30.4401" width="144.296" height="202.12" rx="6.17661" stroke="url(#paint0_linear_93_1208)" stroke-opacity="0.14" stroke-width="0.262835"/>
<path d="M369.302 38.1146C369.302 36.3727 370.714 34.9606 372.456 34.9606H501.811C503.553 34.9606 504.965 36.3727 504.965 38.1146V185.203C504.965 186.945 503.553 188.357 501.811 188.357H372.456C370.714 188.357 369.302 186.945 369.302 185.203V105.314C369.302 104.25 369.839 103.257 370.73 102.675L373.273 101.011C374.164 100.429 374.7 99.4362 374.7 98.3718V65.4084C374.7 64.3346 374.154 63.3346 373.251 62.7544L370.752 61.1499C369.848 60.5697 369.302 59.5697 369.302 58.496V38.1146Z" fill="#E4EDF3"/>
<path d="M369.302 38.1146C369.302 36.3727 370.714 34.9606 372.456 34.9606H501.811C503.553 34.9606 504.965 36.3727 504.965 38.1146V185.203C504.965 186.945 503.553 188.357 501.811 188.357H372.456C370.714 188.357 369.302 186.945 369.302 185.203V105.314C369.302 104.25 369.839 103.257 370.73 102.675L373.273 101.011C374.164 100.429 374.7 99.4362 374.7 98.3718V65.4084C374.7 64.3346 374.154 63.3346 373.251 62.7544L370.752 61.1499C369.848 60.5697 369.302 59.5697 369.302 58.496V38.1146Z" fill="url(#paint1_linear_93_1208)" fill-opacity="0.5"/>
<path d="M372.331 200.686V207.224H370.371V197.424H371.939L378.029 203.92V197.424H379.989V207.224H378.407L372.331 200.686ZM381.76 207.224V197.424H389.852V199.23H383.72V201.764H389.628V203.598H383.72V207.224H381.76ZM394.501 207.224V199.23H391.029V197.424H399.905V199.23H396.461V207.224H394.501ZM406.118 202.338C406.118 204.228 407.546 205.558 409.534 205.558C410.948 205.558 412.054 204.9 412.6 203.836H414.672C414.07 206.034 412.054 207.434 409.534 207.434C406.468 207.434 404.158 205.25 404.158 202.338C404.158 199.384 406.454 197.214 409.534 197.214C412.054 197.214 414.056 198.614 414.672 200.812H412.6C412.068 199.734 410.962 199.09 409.534 199.09C407.532 199.09 406.118 200.406 406.118 202.338ZM414.943 207.224L419.857 197.424H422.041L426.983 207.224H424.799L423.637 204.914H418.275L417.113 207.224H414.943ZM419.171 203.122H422.727L420.949 199.594L419.171 203.122ZM434.433 207.224L432.263 204.368H429.603V207.224H427.643V197.424H432.683C434.783 197.424 436.519 198.81 436.519 200.896C436.519 202.268 435.623 203.416 434.405 203.99L436.869 207.224H434.433ZM434.559 200.896C434.559 199.93 433.775 199.23 432.683 199.23H429.603V202.534H432.683C433.761 202.534 434.559 201.82 434.559 200.896ZM437.732 207.224V197.424H442.366C445.096 197.424 447.434 199.412 447.434 202.31C447.434 205.11 444.956 207.224 442.366 207.224H437.732ZM445.474 202.31C445.474 200.532 444.158 199.3 442.366 199.3H439.692V205.348H442.366C444.144 205.348 445.474 204.088 445.474 202.31Z" fill="#252525"/>
<path opacity="0.9" d="M371.133 225.504V220.958H369.372V220.464H373.408V220.958H371.647V225.504H371.133ZM375.381 225.504V223.394L373.691 220.464H374.286L375.64 222.806L376.988 220.464H377.583L375.899 223.394V225.504H375.381ZM378.07 225.504V220.464H380.016C380.065 220.464 380.12 220.467 380.181 220.471C380.244 220.474 380.307 220.481 380.37 220.492C380.633 220.532 380.856 220.624 381.038 220.769C381.223 220.911 381.361 221.091 381.455 221.308C381.55 221.525 381.598 221.765 381.598 222.029C381.598 222.29 381.55 222.529 381.455 222.746C381.359 222.963 381.219 223.144 381.035 223.289C380.853 223.431 380.631 223.522 380.37 223.562C380.307 223.571 380.244 223.578 380.181 223.583C380.12 223.588 380.065 223.59 380.016 223.59H378.585V225.504H378.07ZM378.585 223.1H380.002C380.044 223.1 380.093 223.098 380.149 223.093C380.205 223.088 380.26 223.08 380.314 223.068C380.486 223.031 380.628 222.96 380.737 222.855C380.849 222.75 380.932 222.625 380.986 222.48C381.042 222.336 381.07 222.185 381.07 222.029C381.07 221.873 381.042 221.722 380.986 221.577C380.932 221.43 380.849 221.304 380.737 221.199C380.628 221.094 380.486 221.023 380.314 220.986C380.26 220.974 380.205 220.967 380.149 220.965C380.093 220.96 380.044 220.958 380.002 220.958H378.585V223.1ZM382.295 225.504V220.464H385.445V220.958H382.809V222.701H385.025V223.194H382.809V225.011H385.445V225.504H382.295Z" fill="#252525" fill-opacity="0.8"/>
<path opacity="0.9" d="M420.693 225.504V220.464H421.208V225.011H423.602V225.504H420.693ZM426.102 225.609C425.601 225.609 425.177 225.499 424.832 225.277C424.486 225.053 424.225 224.744 424.048 224.349C423.87 223.955 423.782 223.5 423.782 222.984C423.782 222.469 423.87 222.014 424.048 221.619C424.225 221.225 424.486 220.917 424.832 220.695C425.177 220.471 425.601 220.359 426.102 220.359C426.606 220.359 427.03 220.471 427.373 220.695C427.718 220.917 427.979 221.225 428.157 221.619C428.336 222.014 428.426 222.469 428.426 222.984C428.426 223.5 428.336 223.955 428.157 224.349C427.979 224.744 427.718 225.053 427.373 225.277C427.03 225.499 426.606 225.609 426.102 225.609ZM426.102 225.116C426.497 225.116 426.826 225.026 427.089 224.846C427.353 224.667 427.55 224.417 427.681 224.097C427.814 223.775 427.88 223.404 427.88 222.984C427.88 222.564 427.814 222.195 427.681 221.875C427.55 221.555 427.353 221.306 427.089 221.126C426.826 220.946 426.497 220.855 426.102 220.853C425.708 220.853 425.38 220.943 425.119 221.122C424.857 221.302 424.66 221.553 424.527 221.875C424.397 222.195 424.33 222.564 424.328 222.984C424.325 223.404 424.39 223.774 424.52 224.094C424.653 224.411 424.852 224.661 425.115 224.843C425.379 225.023 425.708 225.114 426.102 225.116ZM431.168 225.609C430.666 225.609 430.243 225.499 429.897 225.277C429.552 225.053 429.291 224.744 429.113 224.349C428.936 223.955 428.847 223.5 428.847 222.984C428.847 222.469 428.936 222.014 429.113 221.619C429.291 221.225 429.552 220.917 429.897 220.695C430.243 220.471 430.666 220.359 431.168 220.359C431.753 220.359 432.232 220.51 432.603 220.811C432.974 221.11 433.228 221.511 433.366 222.015L432.841 222.151C432.733 221.752 432.541 221.436 432.263 221.203C431.986 220.97 431.62 220.853 431.168 220.853C430.773 220.853 430.446 220.943 430.184 221.122C429.923 221.302 429.726 221.553 429.593 221.875C429.462 222.195 429.394 222.564 429.39 222.984C429.387 223.404 429.452 223.774 429.582 224.094C429.715 224.414 429.914 224.664 430.177 224.846C430.443 225.026 430.773 225.116 431.168 225.116C431.62 225.116 431.986 224.999 432.263 224.766C432.541 224.53 432.733 224.214 432.841 223.817L433.366 223.954C433.228 224.458 432.974 224.86 432.603 225.161C432.232 225.46 431.753 225.609 431.168 225.609ZM433.651 225.504L435.387 220.464H436.07L437.806 225.504H437.27L435.622 220.751H435.825L434.187 225.504H433.651ZM434.425 224.283V223.8H437.029V224.283H434.425ZM439.361 225.504V220.958H437.601V220.464H441.636V220.958H439.876V225.504H439.361ZM442.268 225.504V220.464H442.782V225.504H442.268ZM445.872 225.609C445.37 225.609 444.947 225.499 444.601 225.277C444.256 225.053 443.995 224.744 443.817 224.349C443.64 223.955 443.551 223.5 443.551 222.984C443.551 222.469 443.64 222.014 443.817 221.619C443.995 221.225 444.256 220.917 444.601 220.695C444.947 220.471 445.37 220.359 445.872 220.359C446.376 220.359 446.799 220.471 447.142 220.695C447.488 220.917 447.749 221.225 447.926 221.619C448.106 222.014 448.196 222.469 448.196 222.984C448.196 223.5 448.106 223.955 447.926 224.349C447.749 224.744 447.488 225.053 447.142 225.277C446.799 225.499 446.376 225.609 445.872 225.609ZM445.872 225.116C446.266 225.116 446.595 225.026 446.859 224.846C447.122 224.667 447.32 224.417 447.45 224.097C447.583 223.775 447.65 223.404 447.65 222.984C447.65 222.564 447.583 222.195 447.45 221.875C447.32 221.555 447.122 221.306 446.859 221.126C446.595 220.946 446.266 220.855 445.872 220.853C445.477 220.853 445.15 220.943 444.888 221.122C444.627 221.302 444.43 221.553 444.297 221.875C444.166 222.195 444.1 222.564 444.097 222.984C444.095 223.404 444.159 223.774 444.29 224.094C444.423 224.411 444.621 224.661 444.885 224.843C445.148 225.023 445.477 225.114 445.872 225.116ZM448.897 225.504V220.464H449.415L452.19 224.594V220.464H452.708V225.504H452.19L449.415 221.371V225.504H448.897Z" fill="#252525" fill-opacity="0.8"/>
<path opacity="0.9" d="M488.455 225.504V220.464H489.984C490.038 220.464 490.129 220.466 490.257 220.468C490.388 220.47 490.513 220.48 490.632 220.496C491.015 220.55 491.334 220.692 491.591 220.923C491.848 221.154 492.04 221.448 492.168 221.805C492.297 222.162 492.361 222.555 492.361 222.984C492.361 223.414 492.297 223.807 492.168 224.164C492.04 224.521 491.848 224.815 491.591 225.046C491.334 225.277 491.015 225.419 490.632 225.473C490.515 225.487 490.39 225.496 490.257 225.501C490.124 225.503 490.033 225.504 489.984 225.504H488.455ZM488.987 225.011H489.984C490.08 225.011 490.183 225.009 490.292 225.004C490.404 224.997 490.5 224.985 490.579 224.969C490.873 224.918 491.11 224.799 491.29 224.612C491.472 224.425 491.605 224.192 491.689 223.912C491.773 223.63 491.815 223.32 491.815 222.984C491.815 222.646 491.773 222.336 491.689 222.053C491.605 221.771 491.472 221.538 491.29 221.353C491.108 221.169 490.871 221.051 490.579 221C490.5 220.984 490.403 220.973 490.289 220.968C490.177 220.961 490.075 220.958 489.984 220.958H488.987V225.011ZM492.671 225.504L494.407 220.464H495.09L496.826 225.504H496.29L494.642 220.751H494.845L493.207 225.504H492.671ZM493.445 224.283V223.8H496.049V224.283H493.445ZM498.381 225.504V220.958H496.621V220.464H500.656V220.958H498.896V225.504H498.381ZM501.218 225.504V220.464H504.368V220.958H501.732V222.701H503.948V223.194H501.732V225.011H504.368V225.504H501.218Z" fill="#252525" fill-opacity="0.8"/>
</g>
<defs>
<filter id="filter0_d_93_1208" x="359.093" y="25.3149" width="156.649" height="214.473" filterUnits="userSpaceOnUse" color-interpolation-filters="sRGB">
<feFlood flood-opacity="0" result="BackgroundImageFix"/>
<feColorMatrix in="SourceAlpha" type="matrix" values="0 0 0 0 0 0 0 0 0 0 0 0 0 0 0 0 0 0 127 0" result="hardAlpha"/>
<feMorphology radius="0.262835" operator="erode" in="SourceAlpha" result="effect1_dropShadow_93_1208"/>
<feOffset dy="1.05134"/>
<feGaussianBlur stdDeviation="3.15401"/>
<feComposite in2="hardAlpha" operator="out"/>
<feColorMatrix type="matrix" values="0 0 0 0 0 0 0 0 0 0 0 0 0 0 0 0 0 0 0.2 0"/>
<feBlend mode="normal" in2="BackgroundImageFix" result="effect1_dropShadow_93_1208"/>
<feBlend mode="normal" in="SourceGraphic" in2="effect1_dropShadow_93_1208" result="shape"/>
</filter>
<linearGradient id="paint0_linear_93_1208" x1="365.138" y1="30.3087" x2="509.697" y2="231.377" gradientUnits="userSpaceOnUse">
<stop stop-color="white"/>
<stop offset="1" stop-color="white" stop-opacity="0.31"/>
</linearGradient>
<linearGradient id="paint1_linear_93_1208" x1="369.302" y1="34.9606" x2="469.568" y2="208.824" gradientUnits="userSpaceOnUse">
<stop stop-color="white" stop-opacity="0"/>
<stop offset="0.473958" stop-color="white"/>
<stop offset="0.592255" stop-color="#A3B2D1"/>
<stop offset="1" stop-color="#535C7F"/>
</linearGradient>
</defs>
</svg>
