<svg width="295" height="150" viewBox="0 0 295 150" fill="none" xmlns="http://www.w3.org/2000/svg">
<rect width="295" height="150" rx="10" fill="white"/>
<path fill-rule="evenodd" clip-rule="evenodd" d="M192.426 56.1158C192.625 56.006 192.481 56.2392 192.598 55.862L192.762 55.0047C192.844 54.6206 192.906 54.264 192.988 53.873C193.379 51.9527 193.976 48.4343 194.394 46.898C194.593 47.2341 197.008 59.8879 197.302 61.4105H177.763L177.742 46.4728H170.671C170.589 47.2958 170.644 59.5175 170.644 61.4173L83.4731 61.4036V40.8489H76.3609L76.3472 68.2689C73.9879 68.358 69.6671 68.2757 67.1021 68.2757V73.4813H83.4731V66.6229L218.66 66.6091L218.646 46.4797H211.575C211.493 47.2752 211.547 59.545 211.547 61.4173H203.722C203.352 61.4173 203.413 61.0264 203.317 60.5326L201.267 50.1969C201.109 49.4151 200.745 47.0283 200.498 46.4797L188.284 46.4728L186.363 56.1226L192.426 56.1158Z" fill="#252525"/>
<path fill-rule="evenodd" clip-rule="evenodd" d="M73.5695 84.3794L75.1058 91.1966C75.5859 93.4393 76.0797 95.7232 76.5667 97.9659C77.0605 100.25 77.5406 102.506 78.0412 104.797C78.5282 107.026 79.0974 109.344 79.5021 111.566L91.9981 111.532V83.6661H85.5649L85.5306 111.093L79.653 83.6661H67.1021V111.573L73.549 111.539L73.5695 84.3794Z" fill="#252525"/>
<path fill-rule="evenodd" clip-rule="evenodd" d="M152.126 100.01H160.129V111.559H167.242V83.6523H160.129L160.123 94.5229H155.246L152.921 98.3225C152.798 98.5214 152.668 98.7409 152.53 98.9535C152.386 99.1798 152.297 99.3856 152.098 99.5365V83.6523H144.986V111.559L152.098 111.525L152.126 100.01Z" fill="#252525"/>
<path fill-rule="evenodd" clip-rule="evenodd" d="M134.417 98.2059C134.815 97.5132 135.199 96.8274 135.604 96.1278C136.413 94.7356 137.175 93.3502 137.991 91.9785L142.764 83.6592L135.618 83.6729L127.545 97.6573V83.6592L120.433 83.6729V111.559L127.545 111.546V100.846L131.921 100.853L135.618 111.566H142.826L138.937 100.353L133.217 100.346L134.417 98.2059Z" fill="#252525"/>
<path fill-rule="evenodd" clip-rule="evenodd" d="M106.195 84.0364L108.012 92.5203C108.451 94.6258 109.514 99.221 109.789 101.032L102.649 101.025L106.195 84.0364ZM101.552 106.031L110.872 106.038L112.018 111.559H118.382L112.532 83.6592H99.9125L94.0554 111.559H100.406L101.552 106.031Z" fill="#252525"/>
<path fill-rule="evenodd" clip-rule="evenodd" d="M198.228 88.851H208.776V83.6592L191.095 83.6935V111.566H208.776V106.374H198.214V99.8931H206.63C206.726 99.5502 206.712 95.2157 206.636 94.7013H201.198C200.951 95.0305 200.697 95.5174 200.45 95.8946L198.982 98.2402C198.735 98.638 198.509 99.077 198.221 99.4062L198.228 88.851Z" fill="#252525"/>
<path fill-rule="evenodd" clip-rule="evenodd" d="M177.797 88.851L188.325 88.8305V83.6592L170.665 83.6729V111.559L188.325 111.546V106.374H177.777V99.8931L186.213 99.8862L186.199 94.7081H180.849C180.616 94.7973 180.541 95.0168 180.397 95.2568L178.538 98.2265C178.353 98.5077 178.017 99.1455 177.777 99.365L177.797 88.851Z" fill="#252525"/>
<path fill-rule="evenodd" clip-rule="evenodd" d="M211.547 111.566H227.898V106.374H218.66L218.666 83.6866L218.426 83.6592H211.547V111.566Z" fill="#252525"/>
<path fill-rule="evenodd" clip-rule="evenodd" d="M168.84 71.9519C169.19 70.0589 167.722 68.5364 166.152 68.2826C164.176 67.9603 162.578 69.2839 162.311 70.9025C161.625 75.045 168.051 76.1767 168.84 71.9519Z" fill="#252525"/>
<path fill-rule="evenodd" clip-rule="evenodd" d="M218.372 42.1452C218.701 40.2591 217.267 38.7365 215.697 38.4759C213.735 38.1536 212.124 39.4704 211.849 41.0752C211.513 43.0436 212.96 44.5456 214.558 44.7857C216.54 45.0874 218.09 43.7637 218.372 42.1452Z" fill="#252525"/>
<path fill-rule="evenodd" clip-rule="evenodd" d="M174.114 68.2415C172.681 68.2415 171.563 69.188 171.138 70.203C170.006 72.919 172.859 75.5389 175.561 74.3524C178.723 72.967 177.845 68.2415 174.114 68.2415Z" fill="#252525"/>
<path fill-rule="evenodd" clip-rule="evenodd" d="M197.68 42.0766C197.947 40.218 196.548 38.7023 194.936 38.4691C192.968 38.181 191.397 39.5116 191.137 41.1301C190.821 43.0848 192.282 44.5731 193.921 44.7994C195.862 45.0669 197.446 43.7089 197.68 42.0766Z" fill="#252525"/>
</svg>
